%FSTAX23Y23*%
%MOMM*%
%SFA1B1*%

%IPPOS*%
%ADD47C,0.599999*%
%ADD48C,0.699999*%
%ADD49C,0.649999*%
%ADD50C,0.999998*%
%ADD51C,0.649999*%
%ADD52C,0.699999*%
%ADD53C,0.699999*%
%ADD54C,0.649999*%
%ADD55C,0.599999*%
%ADD56C,1.999996*%
%ADD57C,1.999996*%
%ADD58C,1.999996*%
%ADD59C,1.999996*%
%ADD60C,0.299999*%
%LNflightstick_trigger_rightv2_pth_drill-1*%
%LPD*%
G54D47*
X00958Y04926D03*
X-00917Y05257D03*
X-0467Y05918D03*
X-02794Y05588D03*
G54D48*
X03325Y-47625D03*
X06325D03*
X-15088Y-47879D03*
X-13589D03*
X-12088D03*
X04826Y-47625D03*
G54D49*
X06488Y-41947D03*
X06357Y-40453D03*
X06226Y-38959D03*
X06096Y-37465D03*
X05965Y-3597D03*
G54D50*
X0Y-1524D03*
X-08001Y-18161D03*
X0Y-1016D03*
Y-0508D03*
X-127Y-0762D03*
Y-127D03*
Y-1778D03*
G54D51*
X-08333Y-47879D03*
X-06833D03*
X-05334D03*
X-03833D03*
X-03845Y-44634D03*
X-05345D03*
X-06845D03*
X-08345D03*
G54D52*
X-05645Y-15342D03*
Y-13843D03*
Y-12342D03*
G54D53*
X-18166Y-41855D03*
X-18035Y-40361D03*
G54D54*
X-17674Y-36903D03*
X-17543Y-35409D03*
X-17412Y-33914D03*
X-17281Y-3242D03*
G54D55*
X-11782Y05257D03*
X-13658Y04926D03*
X-09906Y05588D03*
X-08029Y05918D03*
G54D56*
X-127Y-2794D03*
G54D57*
X0Y-2794D03*
G54D58*
X-127Y0D03*
G54D59*
X0Y0D03*
G54D60*
X-00127Y-36449D03*
X-11971Y-38735D03*
X-02849Y-33154D03*
X-04445Y-35179D03*
X00127Y-38481D03*
Y-33782D03*
X-1213Y-33528D03*
X-12446Y-41402D03*
X-08382Y-29972D03*
X-0635Y-30988D03*
X-04318D03*
M02*