%FSTAX23Y23*%
%MOMM*%
%SFA1B1*%

%IPPOS*%
%ADD11R,1.599997X0.599999*%
%ADD12R,1.599997X0.399999*%
%ADD13R,1.349997X0.999998*%
%ADD14R,0.999998X1.349997*%
%ADD15R,1.304637X1.456197*%
%ADD16R,1.269997X0.634999*%
%LNflightstick_trigger_rightv2_paste_top-1*%
%LPD*%
G54D11*
X-09849Y-33154D03*
Y-40504D03*
X-02849Y-33154D03*
Y-40504D03*
G54D12*
X-09849Y-35854D03*
Y-36504D03*
Y-37154D03*
Y-37804D03*
Y-38454D03*
X-02849Y-39104D03*
Y-38454D03*
Y-37804D03*
Y-37154D03*
Y-36504D03*
X-09849Y-34554D03*
Y-33904D03*
X-02849Y-35204D03*
Y-35854D03*
X-09849Y-39754D03*
Y-39104D03*
Y-35204D03*
X-02849Y-39754D03*
Y-34554D03*
Y-33904D03*
G54D13*
X00381Y-48016D03*
Y-46216D03*
G54D14*
X05068Y-44958D03*
X02434Y-42164D03*
X02677Y-39243D03*
X02296Y-36322D03*
X02931Y-33274D03*
X01661Y-30988D03*
X-02423Y-2032D03*
X01131Y-33274D03*
X00635Y-42164D03*
X-00623Y-2032D03*
X-10529Y-23114D03*
X-12329D03*
X-00137Y-30988D03*
X00496Y-36322D03*
X00877Y-39243D03*
X-13577Y-41656D03*
X-15377D03*
X-1345Y-39243D03*
X-1525D03*
X-12561Y-36068D03*
X-14361D03*
X-12434Y-33782D03*
X-14234D03*
X-1218Y-31242D03*
X-1398D03*
X06868Y-44958D03*
X-09121Y-42164D03*
X-10922D03*
X-13589Y-43307D03*
X-15388D03*
G54D15*
X-02075Y-18034D03*
X-00464D03*
X-12279Y-20574D03*
X-10668D03*
G54D16*
X-08382Y-29972D03*
Y-30988D03*
Y-28956D03*
X-0635Y-29972D03*
Y-30988D03*
Y-28956D03*
X-04318Y-29972D03*
Y-30988D03*
Y-28956D03*
M02*