%FSTAX23Y23*%
%MOMM*%
%SFA1B1*%

%IPPOS*%
%ADD32C,0.250000*%
%ADD33C,0.200000*%
%ADD34C,0.253999*%
%LNflightstick_trigger_rightv2_legend_bot-1*%
%LPD*%
G54D32*
X-17738Y-38394D02*
D01*
X-17739Y-38385*
X-17739Y-38376*
X-17741Y-38368*
X-17743Y-38359*
X-17746Y-38351*
X-17749Y-38343*
X-17753Y-38335*
X-17757Y-38327*
X-17762Y-3832*
X-17768Y-38313*
X-17773Y-38307*
X-1778Y-38301*
X-17786Y-38295*
X-17793Y-3829*
X-17801Y-38285*
X-17808Y-38281*
X-17816Y-38278*
X-17825Y-38275*
X-17833Y-38272*
X-17842Y-38271*
X-1785Y-38269*
X-17859Y-38269*
X-17868*
X-17876Y-38269*
X-17885Y-38271*
X-17893Y-38272*
X-17902Y-38275*
X-1791Y-38278*
X-17918Y-38281*
X-17926Y-38285*
X-17933Y-3829*
X-1794Y-38295*
X-17947Y-38301*
X-17953Y-38307*
X-17959Y-38313*
X-17964Y-3832*
X-17969Y-38327*
X-17974Y-38335*
X-17977Y-38343*
X-17981Y-38351*
X-17983Y-38359*
X-17986Y-38368*
X-17987Y-38376*
X-17988Y-38385*
X-17988Y-38394*
X-17988Y-38402*
X-17987Y-38411*
X-17986Y-3842*
X-17983Y-38428*
X-17981Y-38436*
X-17977Y-38444*
X-17974Y-38452*
X-17969Y-3846*
X-17964Y-38467*
X-17959Y-38474*
X-17953Y-3848*
X-17947Y-38487*
X-1794Y-38492*
X-17933Y-38497*
X-17926Y-38502*
X-17918Y-38506*
X-1791Y-3851*
X-17902Y-38513*
X-17893Y-38515*
X-17885Y-38517*
X-17876Y-38518*
X-17868Y-38519*
X-17859*
X-1785Y-38518*
X-17842Y-38517*
X-17833Y-38515*
X-17825Y-38513*
X-17816Y-3851*
X-17808Y-38506*
X-17801Y-38502*
X-17793Y-38497*
X-17786Y-38492*
X-1778Y-38487*
X-17773Y-3848*
X-17768Y-38474*
X-17762Y-38467*
X-17757Y-3846*
X-17753Y-38452*
X-17749Y-38444*
X-17746Y-38436*
X-17743Y-38428*
X-17741Y-3842*
X-17739Y-38411*
X-17739Y-38402*
X-17738Y-38394*
X-16964Y-30505D02*
D01*
X-16964Y-30496*
X-16965Y-30487*
X-16966Y-30479*
X-16968Y-3047*
X-16971Y-30462*
X-16974Y-30454*
X-16978Y-30446*
X-16983Y-30438*
X-16988Y-30431*
X-16993Y-30424*
X-16999Y-30418*
X-17005Y-30412*
X-17012Y-30406*
X-17019Y-30401*
X-17026Y-30396*
X-17034Y-30392*
X-17042Y-30389*
X-1705Y-30386*
X-17058Y-30383*
X-17067Y-30381*
X-17076Y-3038*
X-17084Y-3038*
X-17093*
X-17102Y-3038*
X-1711Y-30381*
X-17119Y-30383*
X-17127Y-30386*
X-17135Y-30389*
X-17143Y-30392*
X-17151Y-30396*
X-17159Y-30401*
X-17166Y-30406*
X-17172Y-30412*
X-17179Y-30418*
X-17184Y-30424*
X-1719Y-30431*
X-17195Y-30438*
X-17199Y-30446*
X-17203Y-30454*
X-17206Y-30462*
X-17209Y-3047*
X-17211Y-30479*
X-17212Y-30487*
X-17213Y-30496*
X-17214Y-30505*
X-17213Y-30513*
X-17212Y-30522*
X-17211Y-30531*
X-17209Y-30539*
X-17206Y-30547*
X-17203Y-30555*
X-17199Y-30563*
X-17195Y-30571*
X-1719Y-30578*
X-17184Y-30585*
X-17179Y-30591*
X-17172Y-30597*
X-17166Y-30603*
X-17159Y-30608*
X-17151Y-30613*
X-17143Y-30617*
X-17135Y-3062*
X-17127Y-30623*
X-17119Y-30626*
X-1711Y-30628*
X-17102Y-30629*
X-17093Y-30629*
X-17084*
X-17076Y-30629*
X-17067Y-30628*
X-17058Y-30626*
X-1705Y-30623*
X-17042Y-3062*
X-17034Y-30617*
X-17026Y-30613*
X-17019Y-30608*
X-17012Y-30603*
X-17005Y-30597*
X-16999Y-30591*
X-16993Y-30585*
X-16988Y-30578*
X-16983Y-30571*
X-16978Y-30563*
X-16974Y-30555*
X-16971Y-30547*
X-16968Y-30539*
X-16966Y-30531*
X-16965Y-30522*
X-16964Y-30513*
X-16964Y-30505*
X-10133Y-47853D02*
D01*
X-10134Y-47845*
X-10135Y-47836*
X-10136Y-47827*
X-10138Y-47819*
X-10141Y-47811*
X-10144Y-47803*
X-10148Y-47795*
X-10152Y-47787*
X-10157Y-4778*
X-10163Y-47773*
X-10169Y-47767*
X-10175Y-47761*
X-10182Y-47755*
X-10189Y-4775*
X-10196Y-47745*
X-10204Y-47741*
X-10212Y-47738*
X-1022Y-47735*
X-10228Y-47732*
X-10237Y-4773*
X-10245Y-47729*
X-10254Y-47729*
X-10263*
X-10272Y-47729*
X-1028Y-4773*
X-10289Y-47732*
X-10297Y-47735*
X-10305Y-47738*
X-10313Y-47741*
X-10321Y-47745*
X-10328Y-4775*
X-10335Y-47755*
X-10342Y-47761*
X-10348Y-47767*
X-10354Y-47773*
X-1036Y-4778*
X-10365Y-47787*
X-10369Y-47795*
X-10373Y-47803*
X-10376Y-47811*
X-10379Y-47819*
X-10381Y-47827*
X-10382Y-47836*
X-10383Y-47845*
X-10383Y-47853*
X-10383Y-47862*
X-10382Y-47871*
X-10381Y-47879*
X-10379Y-47888*
X-10376Y-47896*
X-10373Y-47904*
X-10369Y-47912*
X-10365Y-4792*
X-1036Y-47927*
X-10354Y-47934*
X-10348Y-4794*
X-10342Y-47946*
X-10335Y-47952*
X-10328Y-47957*
X-10321Y-47962*
X-10313Y-47966*
X-10305Y-47969*
X-10297Y-47972*
X-10289Y-47975*
X-1028Y-47977*
X-10272Y-47978*
X-10263Y-47978*
X-10254*
X-10245Y-47978*
X-10237Y-47977*
X-10228Y-47975*
X-1022Y-47972*
X-10212Y-47969*
X-10204Y-47966*
X-10196Y-47962*
X-10189Y-47957*
X-10182Y-47952*
X-10175Y-47946*
X-10169Y-4794*
X-10163Y-47934*
X-10157Y-47927*
X-10152Y-4792*
X-10148Y-47912*
X-10144Y-47904*
X-10141Y-47896*
X-10138Y-47888*
X-10136Y-47879*
X-10135Y-47871*
X-10134Y-47862*
X-10133Y-47853*
G54D33*
X-09833Y-45678D02*
X-02333D01*
X01128Y-48448D02*
Y-45531D01*
X-01128Y-48448D02*
Y-45531D01*
X-14666Y-36209D02*
X-11749D01*
X-15174Y-41006D02*
X-12257D01*
X00319Y-31129D02*
X03236D01*
X00319Y-33386D02*
X03236D01*
X01081Y-42051D02*
X03998D01*
X01081Y-44308D02*
X03998D01*
X01038Y-41768D02*
X03954D01*
X-14666Y-38466D02*
X-11749D01*
X-15428Y-4167D02*
X-12511D01*
X-15428Y-43927D02*
X-12511D01*
X-15174Y-38749D02*
X-12257D01*
X-13283Y-46975D02*
X-13042D01*
X-14783D02*
X-13894D01*
X-12177Y-44554D02*
Y-43881D01*
X-0992Y-44554D02*
Y-41638D01*
X-15428Y-44718D02*
X-12511D01*
X01038Y-39511D02*
X03954D01*
X01825Y-45424D02*
X07825D01*
X01825Y-48924D02*
Y-45424D01*
Y-48924D02*
X07825D01*
X-14368Y-35926D02*
X-11452D01*
X-14539Y-31129D02*
X-11622D01*
X-14539Y-33386D02*
X-11622D01*
X-02333Y-4912D02*
Y-45678D01*
X-09833Y-49178D02*
X-08222D01*
X-09833D02*
Y-45678D01*
X07825Y-48924D02*
Y-45424D01*
X04637Y-4294D02*
X07554D01*
X04637Y-45197D02*
X07554D01*
X-14368Y-33669D02*
X-11452D01*
X00573Y-3618D02*
X0349D01*
X-15613Y-38589D02*
X-14959Y-31117D01*
X-18446Y-30812D02*
X-14959Y-31117D01*
X00827Y-38974D02*
X03744D01*
X00827Y-36717D02*
X03744D01*
X00573Y-33923D02*
X0349D01*
X-19187Y-38755D02*
X-15713Y-39059D01*
X-16673Y-43492D02*
X-16105Y-43541D01*
X-19099Y-38284D02*
X-18446Y-30812D01*
X-19099Y-38284D02*
X-15613Y-38589D01*
X-16105Y-43541D02*
X-15713Y-39059D01*
X02847Y-17579D02*
Y-17413D01*
X02681*
Y-17579*
X02847*
X-15547Y-05279D02*
Y-05446D01*
X-15381*
Y-05279*
X-15547*
X-04651Y-04413D02*
X-04817Y-04246D01*
Y-03913*
X-04651Y-03747*
X-04484*
X-04318Y-03913*
Y-04246*
X-04151Y-04413*
X-03984*
X-03818Y-04246*
Y-03913*
X-03984Y-03747*
X-04817Y-04746D02*
X-03818D01*
X-04151Y-0508*
X-03818Y-05413*
X-04817*
X-03818Y-06412D02*
Y-05746D01*
X-04484Y-06412*
X-04651*
X-04817Y-06246*
Y-05913*
X-04651Y-05746*
X-10394Y-03535D02*
X-10228Y-03369D01*
X-09894*
X-09728Y-03535*
Y-03702*
X-09894Y-03868*
X-10228*
X-10394Y-04035*
Y-04202*
X-10228Y-04368*
X-09894*
X-09728Y-04202*
X-10727Y-03369D02*
Y-04368D01*
X-11061Y-04035*
X-11394Y-04368*
Y-03369*
X-11727Y-04368D02*
X-1206D01*
X-11894*
Y-03369*
X-11727Y-03535*
G54D34*
X-09652Y-2032D02*
Y-06096D01*
X-15748D02*
X-09652D01*
X-03048Y-0254D02*
X03048D01*
X-02722Y-16764D02*
X02722D01*
X03048Y-1278D02*
Y-0254D01*
X-15748Y-2032D02*
Y-06096D01*
Y-2032D02*
X-09652D01*
X-03048Y-1278D02*
Y-0254D01*
M02*