%FSTAX23Y23*%
%MOMM*%
%SFA1B1*%

%IPPOS*%
%AMD25*
4,1,4,-0.650240,-0.546100,0.546100,-0.650240,0.650240,0.546100,-0.546100,0.650240,-0.650240,-0.546100,0.0*
%
%AMD26*
4,1,4,-0.622300,-0.520700,0.520700,-0.622300,0.622300,0.520700,-0.520700,0.622300,-0.622300,-0.520700,0.0*
%
%AMD39*
4,1,4,-0.662940,-0.464820,0.464820,-0.662940,0.662940,0.464820,-0.464820,0.662940,-0.662940,-0.464820,0.0*
%
%AMD42*
4,1,4,-0.464820,-0.662940,0.662940,-0.464820,0.464820,0.662940,-0.662940,0.464820,-0.464820,-0.662940,0.0*
%
%ADD11R,1.599997X0.599999*%
%ADD12R,1.599997X0.399999*%
%ADD15R,1.304637X1.456197*%
%ADD19R,1.199998X1.199998*%
%ADD20C,1.199998*%
%ADD21C,1.149998*%
%ADD23R,1.149998X1.149998*%
%ADD24R,1.199998X1.199998*%
G04~CAMADD=25~10~0.0~472.4~0.0~0.0~0.0~0.0~0~0.0~0.0~0.0~0.0~0~0.0~0.0~0.0~0.0~0~0.0~0.0~0.0~175.0~472.4~0.0*
%ADD25D25*%
G04~CAMADD=26~10~0.0~452.8~0.0~0.0~0.0~0.0~0~0.0~0.0~0.0~0.0~0~0.0~0.0~0.0~0.0~0~0.0~0.0~0.0~175.0~452.8~0.0*
%ADD26D26*%
%ADD35R,1.425997X1.075998*%
%ADD36R,1.075998X1.425997*%
%ADD37R,1.345997X0.710999*%
%ADD38C,1.145998*%
G04~CAMADD=39~10~0.0~451.2~0.0~0.0~0.0~0.0~0~0.0~0.0~0.0~0.0~0~0.0~0.0~0.0~0.0~0~0.0~0.0~0.0~170.0~451.2~0.0*
%ADD39D39*%
%ADD40C,2.075996*%
%ADD41C,1.875996*%
G04~CAMADD=42~10~0.0~451.2~0.0~0.0~0.0~0.0~0~0.0~0.0~0.0~0.0~0~0.0~0.0~0.0~0.0~0~0.0~0.0~0.0~190.0~451.2~0.0*
%ADD42D42*%
%ADD43C,3.575993*%
%LNflightstick_trigger_rightv2_soldermask_top-1*%
%LPD*%
G54D11*
X-09849Y-33154D03*
Y-40504D03*
X-02849Y-33154D03*
Y-40504D03*
G54D12*
X-09849Y-35854D03*
Y-36504D03*
Y-37154D03*
Y-37804D03*
Y-38454D03*
X-02849Y-39104D03*
Y-38454D03*
Y-37804D03*
Y-37154D03*
Y-36504D03*
X-09849Y-34554D03*
Y-33904D03*
X-02849Y-35204D03*
Y-35854D03*
X-09849Y-39754D03*
Y-39104D03*
Y-35204D03*
X-02849Y-39754D03*
Y-34554D03*
Y-33904D03*
G54D15*
X-02075Y-18034D03*
X-00464D03*
X-12279Y-20574D03*
X-10668D03*
G54D19*
X03325Y-47625D03*
X-12088Y-47879D03*
G54D20*
X06325Y-47625D03*
X-15088Y-47879D03*
X-13589D03*
X04826Y-47625D03*
X-05645Y-15342D03*
Y-13843D03*
X-18166Y-41855D03*
G54D21*
X06488Y-41947D03*
X06357Y-40453D03*
X06226Y-38959D03*
X06096Y-37465D03*
X05965Y-3597D03*
X-06833Y-47879D03*
X-05334D03*
X-03833D03*
X-17674Y-36903D03*
X-17543Y-35409D03*
X-17412Y-33914D03*
X-03845Y-44634D03*
X-05345D03*
X-06845D03*
G54D23*
X-08333Y-47879D03*
X-08345Y-44634D03*
G54D24*
X-05645Y-12342D03*
G54D25*
X-18035Y-40361D03*
G54D26*
X-17281Y-3242D03*
G54D35*
X00381Y-48016D03*
Y-46216D03*
G54D36*
X05068Y-44958D03*
X02434Y-42164D03*
X02677Y-39243D03*
X02296Y-36322D03*
X02931Y-33274D03*
X01661Y-30988D03*
X-02423Y-2032D03*
X01131Y-33274D03*
X00635Y-42164D03*
X-00623Y-2032D03*
X-10529Y-23114D03*
X-12329D03*
X-00137Y-30988D03*
X00496Y-36322D03*
X00877Y-39243D03*
X-13577Y-41656D03*
X-15377D03*
X-1345Y-39243D03*
X-1525D03*
X-12561Y-36068D03*
X-14361D03*
X-12434Y-33782D03*
X-14234D03*
X-1218Y-31242D03*
X-1398D03*
X06868Y-44958D03*
X-09121Y-42164D03*
X-10922D03*
X-13589Y-43307D03*
X-15388D03*
G54D37*
X-08382Y-29972D03*
Y-30988D03*
Y-28956D03*
X-0635Y-29972D03*
Y-30988D03*
Y-28956D03*
X-04318Y-29972D03*
Y-30988D03*
Y-28956D03*
G54D38*
X00958Y04926D03*
X-00917Y05257D03*
X-02794Y05588D03*
X-11782Y05257D03*
X-09906Y05588D03*
X-08029Y05918D03*
G54D39*
X-0467Y05918D03*
G54D40*
X0Y-1524D03*
Y-1016D03*
Y-0508D03*
X-127Y-0762D03*
Y-127D03*
Y-1778D03*
G54D41*
X-08001Y-18161D03*
G54D42*
X-13658Y04926D03*
G54D43*
X-127Y-2794D03*
X0D03*
X-127Y0D03*
X0D03*
M02*