%FSTAX23Y23*%
%MOMM*%
%SFA1B1*%

%IPPOS*%
%ADD29C,0.250000*%
%ADD30C,0.200000*%
%ADD31C,0.253999*%
%LNledpcbv2_legend_bot-1*%
%LPD*%
G54D29*
X01878Y21299D02*
D01*
X01878Y21308*
X01877Y21317*
X01876Y21325*
X01874Y21334*
X01871Y21342*
X01868Y2135*
X01864Y21358*
X01859Y21366*
X01855Y21373*
X01849Y2138*
X01843Y21386*
X01837Y21392*
X0183Y21398*
X01823Y21403*
X01816Y21408*
X01808Y21412*
X018Y21415*
X01792Y21418*
X01784Y21421*
X01775Y21423*
X01767Y21424*
X01758Y21424*
X01749*
X0174Y21424*
X01732Y21423*
X01723Y21421*
X01715Y21418*
X01707Y21415*
X01699Y21412*
X01691Y21408*
X01684Y21403*
X01677Y21398*
X0167Y21392*
X01664Y21386*
X01658Y2138*
X01652Y21373*
X01647Y21366*
X01643Y21358*
X01639Y2135*
X01636Y21342*
X01633Y21334*
X01631Y21325*
X0163Y21317*
X01629Y21308*
X01628Y21299*
X01629Y21291*
X0163Y21282*
X01631Y21273*
X01633Y21265*
X01636Y21257*
X01639Y21249*
X01643Y21241*
X01647Y21233*
X01652Y21226*
X01658Y21219*
X01664Y21213*
X0167Y21207*
X01677Y21201*
X01684Y21196*
X01691Y21191*
X01699Y21187*
X01707Y21184*
X01715Y21181*
X01723Y21178*
X01732Y21176*
X0174Y21175*
X01749Y21175*
X01758*
X01767Y21175*
X01775Y21176*
X01784Y21178*
X01792Y21181*
X018Y21184*
X01808Y21187*
X01816Y21191*
X01823Y21196*
X0183Y21201*
X01837Y21207*
X01843Y21213*
X01849Y21219*
X01855Y21226*
X01859Y21233*
X01864Y21241*
X01868Y21249*
X01871Y21257*
X01874Y21265*
X01876Y21273*
X01877Y21282*
X01878Y21291*
X01878Y21299*
G54D30*
X-02745Y17299D02*
X03253D01*
Y20799*
X-02745D02*
X03253D01*
X-02745Y17299D02*
Y20799D01*
X07896Y14969D02*
X08562D01*
Y14469*
X08229*
X08562*
Y13969*
X07563D02*
X0723D01*
X07396*
Y14969*
X07563*
X0673Y13969D02*
X06397D01*
X06563*
Y14636*
X0673*
X05563Y13636D02*
X05397D01*
X0523Y13803*
Y14636*
X0573*
X05897Y14469*
Y14136*
X0573Y13969*
X0523*
X04897Y14969D02*
Y13969D01*
Y14469*
X0473Y14636*
X04397*
X04231Y14469*
Y13969*
X03731Y14802D02*
Y14636D01*
X03897*
X03564*
X03731*
Y14136*
X03564Y13969*
X03064D02*
X02564D01*
X02398Y14136*
X02564Y14302*
X02898*
X03064Y14469*
X02898Y14636*
X02398*
X01898Y14802D02*
Y14636D01*
X02065*
X01731*
X01898*
Y14136*
X01731Y13969*
X01232D02*
X00898D01*
X01065*
Y14636*
X01232*
X-00267D02*
X00232D01*
X00398Y14469*
Y14136*
X00232Y13969*
X-00267*
X-006D02*
Y14969D01*
Y14302D02*
X-011Y14636D01*
X-006Y14302D02*
X-011Y13969D01*
X-026Y13636D02*
Y14636D01*
X-03099*
X-03266Y14469*
Y14136*
X-03099Y13969*
X-026*
X-03599Y14636D02*
Y13969D01*
Y14302*
X-03766Y14469*
X-03932Y14636*
X-04099*
X-04766Y13969D02*
X-05099D01*
X-05265Y14136*
Y14469*
X-05099Y14636*
X-04766*
X-04599Y14469*
Y14136*
X-04766Y13969*
X-05599Y13636D02*
X-05765D01*
X-05932Y13803*
Y14636*
X-07098Y13969D02*
X-06765D01*
X-06598Y14136*
Y14469*
X-06765Y14636*
X-07098*
X-07265Y14469*
Y14302*
X-06598*
X-08264Y14636D02*
X-07765D01*
X-07598Y14469*
Y14136*
X-07765Y13969*
X-08264*
X-08764Y14802D02*
Y14636D01*
X-08598*
X-08931*
X-08764*
Y14136*
X-08931Y13969*
X08562Y12956D02*
Y11956D01*
X07896*
X06896Y12956D02*
X07563D01*
Y11956*
X06896*
X07563Y12456D02*
X0723D01*
X06563Y12956D02*
Y11956D01*
X06063*
X05897Y12123*
Y12789*
X06063Y12956*
X06563*
X05563Y12456D02*
X04897D01*
X04564Y11956D02*
Y12956D01*
X04064*
X03897Y12789*
Y12456*
X04064Y1229*
X04564*
X02898Y12789D02*
X03064Y12956D01*
X03397*
X03564Y12789*
Y12123*
X03397Y11956*
X03064*
X02898Y12123*
X02564Y12956D02*
Y11956D01*
X02065*
X01898Y12123*
Y1229*
X02065Y12456*
X02564*
X02065*
X01898Y12623*
Y12789*
X02065Y12956*
X02564*
X00565D02*
Y1229D01*
X00232Y11956*
X-001Y1229*
Y12956*
X-011Y11956D02*
X-00434D01*
X-011Y12623*
Y12789*
X-00933Y12956*
X-006*
X-00434Y12789*
X08562Y11276D02*
Y10277D01*
X08063*
X07896Y10443*
Y1061*
X08063Y10777*
X08562*
X08063*
X07896Y10943*
Y1111*
X08063Y11276*
X08562*
X07396Y10943D02*
X07063D01*
X06896Y10777*
Y10277*
X07396*
X07563Y10443*
X07396Y1061*
X06896*
X06563Y10277D02*
Y10943D01*
X06063*
X05897Y10777*
Y10277*
X05563Y09943D02*
X05397D01*
X0523Y1011*
Y10943*
X04064Y10277D02*
X04397D01*
X04564Y10443*
Y10777*
X04397Y10943*
X04064*
X03897Y10777*
Y1061*
X04564*
X03564Y10943D02*
Y10277D01*
Y1061*
X03397Y10777*
X03231Y10943*
X03064*
X01898Y10277D02*
X02564D01*
X01898Y10943*
Y1111*
X02065Y11276*
X02398*
X02564Y1111*
X01565Y10277D02*
X01232D01*
X01398*
Y11276*
X01565Y1111*
X02339Y18096D02*
X01673D01*
X0034D02*
X-00325D01*
X00007Y17762D02*
Y18429D01*
G54D31*
X-11199Y22392D02*
Y26392D01*
X11199Y22392D02*
Y26392D01*
M02*