%FSTAX23Y23*%
%MOMM*%
%SFA1B1*%

%IPPOS*%
%ADD11R,0.799998X0.649999*%
%ADD12R,0.799998X0.349999*%
%ADD13R,0.799998X0.599999*%
%ADD14R,0.799998X0.749999*%
%ADD24C,0.253999*%
%ADD25R,1.199998X1.199998*%
%ADD26C,1.199998*%
%ADD27C,3.499993*%
%ADD28C,0.499999*%
%LNledpcbv2_copper_signal_bot-1*%
%LPD*%
G36*
X11194Y11749D02*
X11217Y11632D01*
X11283Y11533*
X11382Y11467*
X115Y11444*
X13717*
X1616Y-1885*
X16074Y-18944*
X-16074*
X-1616Y-1885*
X-13717Y11444*
X-115*
X-11382Y11467*
X-11283Y11533*
X-11217Y11632*
X-11194Y11749*
Y27586*
X11194*
Y11749*
G37*
%LNledpcbv2_copper_signal_bot-2*%
%LPC*%
G36*
X10653Y26621D02*
X09345D01*
Y26372*
X00611*
X00462Y26342*
X00336Y26258*
X-00524Y25397*
X-09345*
Y25446*
X-10653*
Y25116*
X-10675Y25008*
X-10653Y24901*
Y24589*
Y24546*
Y24091*
X-10675Y23983*
X-10653Y23876*
Y23438*
Y23421*
Y22891*
X-10675Y22783*
X-10653Y22676*
Y22163*
X-09345*
Y22433*
X-04605*
X-02027Y19854*
X-02041Y19829*
X-02099Y19612*
Y19387*
X-02041Y1917*
X-01929Y18975*
X-0177Y18816*
X-01575Y18704*
X-01358Y18645*
X-01133*
X-00916Y18704*
X-00721Y18816*
X-00571Y18967*
X-00535Y18981*
X-00456*
X-0042Y18967*
X-0027Y18816*
X-00134Y18738*
Y17956*
X-00714Y17377*
X-09884*
X-10032Y17347*
X-10158Y17263*
X-10307Y17114*
X-10391Y16988*
X-10421Y16839*
Y15441*
X-10427Y15435*
X-10503Y1525*
Y15049*
X-10427Y14864*
X-10421Y14858*
Y09218*
X-12993Y06646*
X-13048*
X-13233Y06569*
X-13375Y06427*
X-13452Y06242*
Y06041*
X-13375Y05856*
X-13289Y0577*
Y05551*
X-13259Y05402*
X-13175Y05276*
X-09153Y01254*
Y01199*
X-09077Y01014*
X-09038Y00975*
Y-04962*
X-1355*
X-13589Y-04923*
X-13774Y-04847*
X-13975*
X-1416Y-04923*
X-14302Y-05065*
X-14379Y-0525*
Y-05451*
X-14302Y-05636*
X-14263Y-05675*
Y-13714*
X-14498Y-13949*
X-14582Y-14075*
X-14612Y-14224*
Y-1431*
X-14737Y-14435*
X-14748*
X-14933Y-14512*
X-15075Y-14654*
X-15152Y-14839*
Y-15039*
X-15075Y-15225*
X-14933Y-15367*
X-14748Y-15443*
X-14693*
X-13962Y-16174*
X-13836Y-16258*
X-13688Y-16288*
X-04874*
X-04835Y-16327*
X-0465Y-16403*
X-04449*
X-04264Y-16327*
X-04225Y-16288*
X02277*
X02302Y-16415*
X02164Y-16472*
X02022Y-16614*
X01945Y-16799*
Y-17*
X02022Y-17185*
X02164Y-17327*
X02349Y-17403*
X0255*
X02735Y-17327*
X02877Y-17185*
X02953Y-17*
Y-16945*
X0361Y-16288*
X09125*
X09164Y-16327*
X09349Y-16403*
X0955*
X09735Y-16327*
X09774Y-16288*
X14481*
X1463Y-16258*
X14656Y-16241*
X14811*
X14996Y-16164*
X15138Y-16022*
X15215Y-15837*
Y-15637*
X15138Y-15451*
X14996Y-15309*
X14811Y-15233*
X1461*
X14425Y-15309*
X14283Y-15451*
X14259Y-15511*
X09774*
X09735Y-15472*
X0955Y-15395*
X09349*
X09164Y-15472*
X09125Y-15511*
X-04225*
X-04264Y-15472*
X-04449Y-15395*
X-0465*
X-04835Y-15472*
X-04874Y-15511*
X-13527*
X-1412Y-14917*
X-13949Y-14746*
X-13865Y-1462*
X-13835Y-14471*
Y-14384*
X-136Y-14149*
X-13516Y-14023*
X-13486Y-13875*
Y-05739*
X-06759*
X-05053Y-07445*
Y-075*
X-04977Y-07685*
X-04835Y-07827*
X-0465Y-07903*
X-04449*
X-04264Y-07827*
X-04225Y-07788*
X02125*
X02164Y-07827*
X02349Y-07903*
X0255*
X02735Y-07827*
X02774Y-07788*
X09125*
X09164Y-07827*
X09349Y-07903*
X0955*
X09735Y-07827*
X09774Y-07788*
X12686*
X12835Y-07758*
X12961Y-07674*
X13983Y-06652*
X14038*
X14223Y-06576*
X14365Y-06434*
X14441Y-06249*
Y-06048*
X14365Y-05863*
X14223Y-05721*
X14038Y-05644*
X13837*
X13652Y-05721*
X1351Y-05863*
X13433Y-06048*
Y-06103*
X12525Y-07011*
X09774*
X09735Y-06972*
X0955Y-06895*
X09349*
X09164Y-06972*
X09125Y-07011*
X02774*
X02735Y-06972*
X0255Y-06895*
X02349*
X02164Y-06972*
X02125Y-07011*
X-04225*
X-04264Y-06972*
X-04449Y-06895*
X-04504*
X-06324Y-05076*
X-0645Y-04992*
X-06598Y-04962*
X-08221*
X-08261Y-04922*
Y00911*
X-06149*
X-06001Y00941*
X-05875Y01025*
X-03189Y03711*
X02061*
Y01699*
X02091Y01551*
X02175Y01425*
X02575Y01025*
X02701Y00941*
X02849Y00911*
X05025*
X05064Y00872*
X05249Y00795*
X0545*
X05635Y00872*
X05777Y01014*
X05853Y01199*
Y01254*
X09555Y04956*
X12686*
X12725Y04917*
X1291Y0484*
X13111*
X13296Y04917*
X13438Y05059*
X13514Y05244*
Y05444*
X13438Y0563*
X13296Y05771*
X13111Y05848*
X1291*
X12725Y05771*
X12686Y05733*
X09394*
X09246Y05703*
X0912Y05619*
X05304Y01803*
X05249*
X05064Y01727*
X05025Y01688*
X0301*
X02838Y0186*
Y03775*
X02877Y03814*
X02953Y03999*
Y042*
X02877Y04385*
X02735Y04527*
X0255Y04603*
X02349*
X02164Y04527*
X02125Y04488*
X-03349*
X-03498Y04458*
X-03624Y04374*
X-0631Y01688*
X-08325*
X-08364Y01727*
X-08549Y01803*
X-08604*
X-12512Y05711*
Y05876*
X-12444Y06041*
Y06096*
X-09758Y08782*
X-09674Y08908*
X-09644Y09057*
Y14761*
X09039*
X09495Y14304*
Y14249*
X09572Y14064*
X09714Y13922*
X09899Y13845*
X101*
X10285Y13922*
X10427Y14064*
X10503Y14249*
Y1445*
X10427Y14635*
X10285Y14777*
X101Y14853*
X10045*
X09474Y15424*
X09348Y15508*
X09199Y15538*
X-09644*
Y166*
X-09393*
X-09317Y16473*
X-09367Y16352*
Y16151*
X-0929Y15966*
X-09148Y15824*
X-08963Y15748*
X-08763*
X-08577Y15824*
X-08538Y15863*
X02258*
X02407Y15893*
X02533Y15977*
X09895Y23338*
X10653*
Y23651*
X10675Y23758*
X10653Y23866*
Y24196*
Y24238*
Y25346*
Y25363*
Y25876*
X10675Y25983*
X10653Y26091*
Y26621*
G37*
G36*
X00197Y02003D02*
X00127D01*
Y00127*
X02003*
Y00197*
X01926Y00584*
X01775Y00949*
X01556Y01277*
X01277Y01556*
X00949Y01775*
X00584Y01926*
X00197Y02003*
G37*
G36*
X-00127D02*
X-00197D01*
X-00584Y01926*
X-00949Y01775*
X-01277Y01556*
X-01556Y01277*
X-01775Y00949*
X-01926Y00584*
X-02003Y00197*
Y00127*
X-00127*
Y02003*
G37*
G36*
X02003Y-00127D02*
X00127D01*
Y-02003*
X00197*
X00584Y-01926*
X00949Y-01775*
X01277Y-01556*
X01556Y-01277*
X01775Y-00949*
X01926Y-00584*
X02003Y-00197*
Y-00127*
G37*
G36*
X-00127D02*
X-02003D01*
Y-00197*
X-01926Y-00584*
X-01775Y-00949*
X-01556Y-01277*
X-01277Y-01556*
X-00949Y-01775*
X-00584Y-01926*
X-00197Y-02003*
X-00127*
Y-00127*
G37*
G36*
X00197Y-08409D02*
X00127D01*
Y-10287*
X02003*
Y-10216*
X01926Y-09829*
X01775Y-09464*
X01556Y-09136*
X01277Y-08857*
X00949Y-08638*
X00584Y-08487*
X00197Y-08409*
G37*
G36*
X-00127D02*
X-00197D01*
X-00584Y-08487*
X-00949Y-08638*
X-01277Y-08857*
X-01556Y-09136*
X-01775Y-09464*
X-01926Y-09829*
X-02003Y-10216*
Y-10287*
X-00127*
Y-08409*
G37*
G36*
X02003Y-10541D02*
X00127D01*
Y-12417*
X00197*
X00584Y-1234*
X00949Y-12189*
X01277Y-1197*
X01556Y-11691*
X01775Y-11363*
X01926Y-10998*
X02003Y-10611*
Y-10541*
G37*
G36*
X-00127D02*
X-02003D01*
Y-10611*
X-01926Y-10998*
X-01775Y-11363*
X-01556Y-11691*
X-01277Y-1197*
X-00949Y-12189*
X-00584Y-1234*
X-00197Y-12417*
X-00127*
Y-10541*
G37*
%LNledpcbv2_copper_signal_bot-3*%
%LPD*%
G36*
X09345Y25363D02*
D01*
Y25346*
Y25025*
X00801*
X00652Y24995*
X00526Y24911*
X00347Y24731*
X00088*
X00035Y24858*
X00772Y25595*
X09345*
Y25363*
G37*
G36*
X-00134Y22277D02*
Y20261D01*
X-0027Y20183*
X-0042Y20032*
X-00456Y20018*
X-00535*
X-00571Y20032*
X-00721Y20183*
X-00916Y20295*
X-01133Y20353*
X-01358*
X-01412Y20339*
X-0417Y23096*
X-04296Y2318*
X-04445Y2321*
X-09345*
Y23421*
Y23438*
Y23595*
X-0524*
X-05091Y23625*
X-04965Y23709*
X-04719Y23954*
X-01811*
X-00134Y22277*
G37*
G36*
X09345Y24196D02*
Y23888D01*
X02098Y1664*
X-00172*
X-00225Y16767*
X00528Y17521*
X00612Y17647*
X00642Y17795*
Y18738*
X00772Y18813*
X0084Y18796*
X00899Y18772*
Y18645*
X01626*
Y19499*
Y20353*
X00899*
Y20227*
X0084Y20202*
X00772Y20186*
X00642Y20261*
Y22438*
X00612Y22586*
X00528Y22712*
X-00595Y23837*
X-00547Y23954*
X00508*
X00656Y23984*
X00782Y24068*
X00962Y24248*
X0924*
X09345Y24196*
G37*
%LNledpcbv2_copper_signal_bot-4*%
%LPC*%
G36*
X02607Y20353D02*
X0188D01*
Y19626*
X02607*
Y20353*
G37*
G36*
Y19372D02*
X0188D01*
Y18645*
X02607*
Y19372*
G37*
%LNledpcbv2_copper_signal_bot-5*%
%LPD*%
G54D11*
X09999Y22717D03*
X-09999Y26067D03*
G54D12*
X09999Y23767D03*
X-09999Y25017D03*
G54D13*
X09999Y24792D03*
X-09999Y23992D03*
G54D14*
X09999Y25992D03*
X-09999Y22792D03*
G54D24*
X-01651Y24343D02*
X00508D01*
X-0488D02*
X-01651D01*
X00254Y19499D02*
Y22438D01*
X-01651Y24343D02*
X00254Y22438D01*
X-10033Y09057D02*
Y16839D01*
X-09884Y16988*
X-00553*
X00254Y17795*
Y19499*
X10039Y24636D02*
X10186Y24783D01*
X00801Y24636D02*
X10039D01*
X-10287Y23983D02*
X-0524D01*
X-10248Y22821D02*
X-04445D01*
X-01245Y19499D02*
Y19622D01*
X-04445Y22821D02*
X-01245Y19622D01*
X-09999Y15149D02*
X09199D01*
X09999Y14349*
X-12948Y06142D02*
X-10033Y09057D01*
X-08382Y-05351D02*
X-06598D01*
X-13875D02*
X-08382D01*
X-08649Y-05083D02*
Y01299D01*
Y-05083D02*
X-08382Y-05351D01*
X-12901Y05551D02*
Y06095D01*
Y05551D02*
X-08649Y01299D01*
X-12948Y06142D02*
X-12901Y06095D01*
X-03349Y04099D02*
X02449D01*
X-06149Y01299D02*
X-03349Y04099D01*
X02449Y01699D02*
Y04099D01*
Y01699D02*
X02849Y01299D01*
X-08649D02*
X-06149D01*
X02849D02*
X05349D01*
X09394Y05344*
X1301*
X14481Y-15899D02*
X14644Y-15737D01*
X14711*
X09449Y-15899D02*
X14481D01*
X-13875Y-13875D02*
Y-05351D01*
X-14224Y-14224D02*
X-13875Y-13875D01*
X-14648Y-14895D02*
X-14224Y-14471D01*
X-14648Y-14939D02*
Y-14895D01*
X-14224Y-14471D02*
Y-14224D01*
X12686Y-07399D02*
X13937Y-06148D01*
X09449Y-07399D02*
X12686D01*
X-04549D02*
X02449D01*
X09449*
X-06598Y-05351D02*
X-04549Y-07399D01*
X-14648Y-14939D02*
X-13688Y-15899D01*
X-04549*
X03449*
X02449Y-16899D02*
X03449Y-15899D01*
X09449*
X00508Y24343D02*
X00801Y24636D01*
X09774Y23767D02*
X09999D01*
X02258Y16251D02*
X09774Y23767D01*
X-08863Y16251D02*
X02258D01*
X10061Y23758D02*
X10287D01*
X-0524Y23983D02*
X-0488Y24343D01*
X-10287Y22783D02*
X-10248Y22821D01*
X-00363Y25008D02*
X00611Y25983D01*
X-10287Y25008D02*
X-00363D01*
X00611Y25983D02*
X10287D01*
G54D25*
X01753Y19499D03*
G54D26*
X00254Y19499D03*
X-01245D03*
G54D27*
X0Y0D03*
Y-10414D03*
G54D28*
X-09999Y15149D03*
X09999Y14349D03*
X02449Y04099D03*
X14711Y-15737D03*
X13937Y-06148D03*
X1301Y05344D03*
X-13875Y-05351D03*
X-12948Y06142D03*
X-08649Y01299D03*
X05349D03*
X09449Y-07399D03*
X02449D03*
X-04549D03*
X-14648Y-14939D03*
X-04549Y-15899D03*
X02449Y-16899D03*
X09449Y-15899D03*
X-08863Y16251D03*
M02*