%FSTAX23Y23*%
%MOMM*%
%SFA1B1*%

%IPPOS*%
%ADD19R,0.599999X1.599997*%
%ADD20R,0.399999X1.599997*%
%ADD21R,1.199998X1.499997*%
%ADD22R,1.049998X1.299997*%
%ADD23R,1.499997X1.199998*%
%ADD24R,1.299997X1.049998*%
%ADD25R,1.269997X0.634999*%
%LNflightstick_buttonpanelv3r_paste_bot-1*%
%LPD*%
G54D19*
X03751Y06355D03*
X-03598D03*
Y13355D03*
X03751D03*
G54D20*
X03001Y06355D03*
X02351D03*
X01701D03*
X01051D03*
X00401D03*
X-00248D03*
X-00898D03*
X-01548D03*
X-02198D03*
X-02848D03*
Y13355D03*
X-02198D03*
X-01548D03*
X-00898D03*
X-00248D03*
X00401D03*
X01051D03*
X01701D03*
X02351D03*
X03001D03*
G54D21*
X07585Y14478D03*
X09685D03*
X12954Y0254D03*
X15053D03*
G54D22*
X09688Y16764D03*
X11138D03*
X13424Y14478D03*
X11974D03*
X09471Y0254D03*
X10922D03*
X-10995Y0635D03*
X-12446D03*
X-07439D03*
X-0889D03*
G54D23*
X13462Y18575D03*
Y16475D03*
Y28227D03*
Y26127D03*
X-1143Y17491D03*
Y19591D03*
X09906Y24417D03*
Y22317D03*
X0635Y24163D03*
Y22063D03*
X-12446Y-0508D03*
Y-07179D03*
Y04572D03*
Y02471D03*
X-08636Y-0508D03*
Y-07179D03*
X-0889Y04351D03*
Y02251D03*
X-05842Y-0508D03*
Y-07179D03*
G54D24*
X13462Y24346D03*
Y22896D03*
X09906Y26162D03*
Y27611D03*
X06858Y26198D03*
Y27648D03*
X-1397Y19012D03*
Y17562D03*
X-12446Y-01597D03*
Y-03048D03*
X-09144Y-0156D03*
Y-0301D03*
X-04572Y-01306D03*
Y-02756D03*
G54D25*
X-07874Y2159D03*
Y22606D03*
Y23622D03*
X-1016Y2159D03*
Y22606D03*
Y23622D03*
X-12446Y2159D03*
Y22606D03*
Y23622D03*
M02*