%FSTAX23Y23*%
%MOMM*%
%SFA1B1*%

%IPPOS*%
%ADD11C,0.253999*%
%ADD12C,3.499993*%
%ADD13C,1.999996*%
%ADD14C,1.149998*%
%ADD15R,1.149998X1.149998*%
%ADD16C,1.199998*%
%ADD17R,1.199998X1.199998*%
%ADD18C,0.499999*%
%ADD19R,0.599999X1.599997*%
%ADD20R,0.399999X1.599997*%
%ADD21R,1.199998X1.499997*%
%ADD22R,1.049998X1.299997*%
%ADD23R,1.499997X1.199998*%
%ADD24R,1.299997X1.049998*%
%ADD25R,1.269997X0.634999*%
%LNflightstick_buttonpanelv3r_copper_signal_bot-1*%
%LPD*%
G36*
X16579Y29772D02*
Y13054D01*
X16424Y13*
X16408Y12991*
X1639Y12986*
X16006Y12799*
X15986Y12784*
X15964Y12774*
X15614Y12528*
X15597Y1251*
X15576Y12497*
X1527Y12198*
X15256Y12178*
X15238Y12161*
X14984Y11818*
X14973Y11795*
X14958Y11776*
X14761Y11396*
X14755Y11373*
X14742Y11351*
X14609Y10945*
X14606Y1092*
X14598Y10897*
X14531Y10475*
X14532Y1045*
X14527Y10426*
X14529Y09998*
X14534Y09974*
X14533Y0995*
X14602Y09528*
X14611Y09505*
X14614Y0948*
X1475Y09075*
X14762Y09053*
X14769Y0903*
X14968Y08651*
X14984Y08632*
X14995Y0861*
X15251Y08268*
X1527Y08252*
X15284Y08231*
X15592Y07935*
X15613Y07921*
X1563Y07904*
X15981Y0766*
X16004Y0765*
X16023Y07635*
X16409Y07451*
X16427Y07446*
X16443Y07437*
X16571Y07394*
Y-09219*
X-16583*
Y07391*
X-16436Y07441*
X-1642Y0745*
X-16402Y07455*
X-16017Y07641*
X-15997Y07656*
X-15975Y07666*
X-15624Y07911*
X-15607Y07928*
X-15587Y07942*
X-1528Y08239*
X-15266Y0826*
X-15248Y08276*
X-14992Y08619*
X-14981Y08641*
X-14966Y0866*
X-14769Y0904*
X-14762Y09063*
X-14749Y09085*
X-14615Y0949*
X-14612Y09515*
X-14603Y09538*
X-14535Y0996*
X-14536Y09978*
X-14531Y09996*
X-14523Y1021*
X-14525Y10222*
X-14523Y10235*
X-14531Y10448*
X-14536Y10466*
X-14535Y10485*
X-14603Y10907*
X-14612Y1093*
X-14615Y10954*
X-14749Y1136*
X-14762Y11382*
X-14769Y11405*
X-14966Y11784*
X-14981Y11803*
X-14992Y11826*
X-15248Y12168*
X-15266Y12185*
X-1528Y12205*
X-15587Y12503*
X-15607Y12516*
X-15624Y12534*
X-15975Y12779*
X-15997Y12789*
X-16017Y12804*
X-16402Y1299*
X-1642Y12994*
X-16436Y13004*
X-16583Y13054*
Y2975*
X-16466Y29793*
X-16458Y29793*
X16456*
X16579Y29772*
G37*
%LNflightstick_buttonpanelv3r_copper_signal_bot-2*%
%LPC*%
G36*
X-07454Y29193D02*
X-07785D01*
X-08104Y29108*
X-08389Y28943*
X-08623Y28709*
X-08788Y28423*
X-08873Y28105*
Y27774*
X-08788Y27455*
X-08623Y2717*
X-08389Y26936*
X-08104Y26771*
X-07785Y26685*
X-07454*
X-07135Y26771*
X-0685Y26936*
X-06616Y2717*
X-06451Y27455*
X-06365Y27774*
Y28105*
X-06451Y28423*
X-06616Y28709*
X-0685Y28943*
X-07135Y29108*
X-07454Y29193*
G37*
G36*
X-12534D02*
X-12865D01*
X-13184Y29108*
X-13469Y28943*
X-13703Y28709*
X-13868Y28423*
X-13953Y28105*
Y27774*
X-13868Y27455*
X-13703Y2717*
X-13469Y26936*
X-13184Y26771*
X-12865Y26685*
X-12534*
X-12215Y26771*
X-1193Y26936*
X-11696Y2717*
X-11531Y27455*
X-11445Y27774*
Y28105*
X-11531Y28423*
X-11696Y28709*
X-1193Y28943*
X-12215Y29108*
X-12534Y29193*
G37*
G36*
X07761Y28427D02*
X05953D01*
Y28037*
X01313*
X01165Y28007*
X01039Y27923*
X-00445Y26438*
X-01603*
Y2473*
X-01614Y24608*
X-03211*
X-0336Y24578*
X-03486Y24494*
X-051Y2288*
X-05184Y22754*
X-05214Y22606*
Y14582*
X-05184Y14433*
X-051Y14307*
X-04152Y13359*
Y12562*
X-06269*
X-07575Y13868*
X-07527Y13985*
X-07454*
X-07135Y14071*
X-0685Y14236*
X-06616Y1447*
X-06451Y14755*
X-06365Y15074*
Y15405*
X-06451Y15723*
X-06616Y16009*
X-0685Y16243*
X-07135Y16408*
X-07454Y16493*
X-07785*
X-07949Y16449*
X-10247Y18747*
X-10373Y18831*
X-10522Y18861*
X-13065*
Y19791*
X-13073*
Y22034*
X-11557*
Y23233*
X-11049*
Y22034*
X-09271*
Y23233*
X-08763*
Y22034*
X-06985*
Y2305*
Y24193*
X-08763*
Y2401*
X-09271*
Y24193*
X-11049*
Y2401*
X-11557*
Y24193*
X-13335*
Y23673*
X-13387Y23663*
X-13513Y23579*
X-13736Y23355*
X-1382Y23229*
X-1385Y23081*
Y19791*
X-14873*
Y18233*
Y16783*
X-13065*
Y17103*
X-12433*
Y16637*
X-12017*
X-11968Y1652*
X-1213Y16359*
X-12215Y16408*
X-12534Y16493*
X-12865*
X-13184Y16408*
X-13469Y16243*
X-13703Y16009*
X-13868Y15723*
X-13953Y15405*
Y15074*
X-13868Y14755*
X-13703Y1447*
X-13469Y14236*
X-13184Y14071*
X-12865Y13985*
X-12534*
X-12215Y14071*
X-1193Y14236*
X-11696Y1447*
X-11531Y14755*
X-11505Y14851*
X-09657*
X-06705Y11899*
X-06579Y11815*
X-0643Y11785*
X-0054*
X-00392Y11815*
X-00266Y11899*
X-00043Y12122*
X-00015Y12164*
X00028Y12169*
X00129Y12152*
X00195Y12054*
X00858Y11391*
X00984Y11307*
X01132Y11277*
X04528*
X04677Y11307*
X04803Y11391*
X05197Y11785*
X06039*
X06187Y11815*
X06237Y11848*
X08861*
X08898Y11726*
X08882Y11716*
X08603Y11437*
X08384Y11109*
X08233Y10744*
X08155Y10357*
Y09962*
X08233Y09575*
X08384Y0921*
X08603Y08882*
X08882Y08603*
X0921Y08384*
X09575Y08233*
X09962Y08155*
X10357*
X10744Y08233*
X11109Y08384*
X11437Y08603*
X11716Y08882*
X11935Y0921*
X12086Y09575*
X12163Y09962*
Y10357*
X12086Y10744*
X11935Y11109*
X11716Y11437*
X11437Y11716*
X11412Y11733*
X11425Y11773*
X11463Y11851*
X11596Y11878*
X11722Y11962*
X13155Y13395*
X13239Y13521*
X1325Y13573*
X14203*
Y15381*
X1385*
Y15621*
X14465*
Y17329*
X12457*
Y15621*
X13073*
Y15381*
X11745*
X11527Y15599*
Y15859*
X11917*
Y17124*
X11925Y17161*
Y18769*
X13736Y2058*
X1382Y20706*
X1385Y20855*
Y22117*
X14365*
Y23071*
X14418Y23082*
X14544Y23166*
X14867Y23489*
X14951Y23615*
X14981Y23764*
Y26885*
X14951Y27034*
X14867Y2716*
X14506Y27521*
X1438Y27605*
X14231Y27635*
X12715*
X12426Y27923*
X123Y28007*
X12152Y28037*
X10809*
Y2839*
X09001*
Y28037*
X07761*
Y28427*
G37*
G36*
X-09962Y12163D02*
X-10357D01*
X-10744Y12086*
X-11109Y11935*
X-11437Y11716*
X-11716Y11437*
X-11935Y11109*
X-12086Y10744*
X-12163Y10357*
Y09962*
X-12086Y09575*
X-11935Y0921*
X-11716Y08882*
X-11437Y08603*
X-11109Y08384*
X-10744Y08233*
X-10357Y08155*
X-09962*
X-09575Y08233*
X-0921Y08384*
X-08882Y08603*
X-08603Y08882*
X-08384Y0921*
X-08233Y09575*
X-08155Y09962*
Y10357*
X-08233Y10744*
X-08384Y11109*
X-08603Y11437*
X-08882Y11716*
X-0921Y11935*
X-09575Y12086*
X-09962Y12163*
G37*
G36*
X00319Y08432D02*
X-08178D01*
X-08326Y08403*
X-08452Y08318*
X-08763Y08008*
X-11439*
X-11588Y07978*
X-11714Y07894*
X-12322Y07286*
X-12344Y07253*
X-13224*
Y05445*
X-13343Y05425*
X-13449*
Y03717*
X-11441*
Y05425*
X-11323Y05445*
X-10986*
Y04171*
X-10956Y04022*
X-10872Y03896*
X-10072Y03096*
X-09946Y03012*
X-09797Y02982*
X-08134*
Y0115*
X-0996*
X-10109Y0112*
X-10235Y01036*
X-12091Y-00818*
X-13349*
Y-01699*
X-13382Y-01721*
X-13851Y-0219*
X-13935Y-02316*
X-13965Y-02465*
Y-05837*
X-13935Y-05986*
X-13851Y-06112*
X-13628Y-06335*
X-13502Y-06419*
X-13353Y-06449*
X-11538*
X-11389Y-06419*
X-11263Y-06335*
X-10744Y-05817*
X-10226Y-06335*
X-101Y-06419*
X-09951Y-06449*
X-04934*
X-04785Y-06419*
X-04659Y-06335*
X-03266Y-04942*
X-03182Y-04816*
X-03152Y-04667*
Y-03436*
X01524*
X01672Y-03406*
X01798Y-03322*
X07894Y02773*
X07978Y02899*
X08008Y03047*
Y03288*
X08125Y03336*
X08674Y02788*
X08692Y02775*
Y01635*
X117*
Y02151*
X12099*
Y01535*
X13807*
Y03543*
X13342*
Y04002*
X13469Y04076*
X13703Y0431*
X13868Y04595*
X13953Y04914*
Y05245*
X13868Y05563*
X13703Y05849*
X13469Y06083*
X13183Y06248*
X12865Y06333*
X12534*
X12215Y06248*
X1213Y06199*
X10518Y0781*
X10392Y07895*
X10243Y07924*
X01993*
X01844Y07895*
X01718Y0781*
X01495Y07587*
X01467Y07545*
X01424Y0754*
X01322Y07557*
X01256Y07656*
X00764Y08148*
X00594Y08318*
X00468Y08403*
X00319Y08432*
G37*
G36*
X12865Y-06365D02*
X12534D01*
X12215Y-06451*
X11929Y-06616*
X11696Y-0685*
X11531Y-07135*
X11445Y-07454*
Y-07785*
X11531Y-08103*
X11696Y-08389*
X11929Y-08623*
X12215Y-08788*
X12534Y-08873*
X12865*
X13183Y-08788*
X13469Y-08623*
X13703Y-08389*
X13868Y-08103*
X13953Y-07785*
Y-07454*
X13868Y-07135*
X13703Y-0685*
X13469Y-06616*
X13183Y-06451*
X12865Y-06365*
G37*
G36*
X07785D02*
X07454D01*
X07135Y-06451*
X06849Y-06616*
X06616Y-0685*
X06451Y-07135*
X06365Y-07454*
Y-07785*
X06451Y-08103*
X06616Y-08389*
X06849Y-08623*
X07135Y-08788*
X07454Y-08873*
X07785*
X08103Y-08788*
X08389Y-08623*
X08623Y-08389*
X08788Y-08103*
X08873Y-07785*
Y-07454*
X08788Y-07135*
X08623Y-0685*
X08389Y-06616*
X08103Y-06451*
X07785Y-06365*
G37*
%LNflightstick_buttonpanelv3r_copper_signal_bot-3*%
%LPD*%
G36*
X09001Y26832D02*
Y25382D01*
X08963Y25271*
X08901*
Y24337*
X08829Y24323*
X08703Y24239*
X08175Y2371*
X07627*
X07479Y2368*
X07465Y23672*
X07353Y23731*
Y25017*
X07246*
Y25419*
X07761*
Y26869*
Y2726*
X09001*
Y26832*
G37*
G36*
X05953Y26869D02*
Y25419D01*
X06469*
Y25017*
X05345*
Y24608*
X00895*
X00879Y24735*
X01079Y24789*
X01274Y24901*
X01433Y2506*
X01545Y25255*
X016Y25457*
X00749*
Y25711*
X016*
X01545Y25914*
X01433Y26109*
X01274Y26268*
X01079Y2638*
X00862Y26438*
X00819*
X0077Y26556*
X01474Y2726*
X05953*
Y26869*
G37*
G36*
X12279Y26972D02*
X12405Y26888D01*
X12457Y26877*
Y25273*
X13073*
Y25125*
X12557*
Y24389*
X12446Y24367*
X1232Y24283*
X12156Y24119*
X12072Y23993*
X12042Y23844*
Y22214*
X12049Y22181*
Y22158*
X11362Y21471*
X05493*
X05218Y21746*
Y22347*
X05189Y22496*
X05105Y22622*
X0505Y22677*
X05098Y22794*
X07488*
X07506Y22798*
X07595Y22686*
X07559Y22599*
Y2244*
X0762Y22293*
X07733Y2218*
X0788Y22119*
X08039*
X08186Y2218*
X08299Y22293*
X08359Y2244*
Y22599*
X08299Y22746*
X08239Y22806*
X08291Y22933*
X08335*
X08484Y22963*
X0861Y23047*
X09127Y23563*
X10909*
Y25271*
X10848*
X10809Y25382*
Y26832*
Y2726*
X11991*
X12279Y26972*
G37*
G36*
X02377Y1968D02*
X02569Y19732D01*
X02636Y1977*
X02763Y19697*
Y17749*
X02647Y17674*
X02631Y17677*
X02618Y17685*
X00755Y19548*
X00807Y19675*
X00859*
X01069Y19732*
X01259Y19841*
X01413Y19995*
X01436Y20036*
X01563*
X01586Y19995*
X0174Y19841*
X0193Y19732*
X02123Y1968*
Y20504*
X02377*
Y1968*
G37*
G36*
X04442Y22186D02*
Y21585D01*
X04471Y21436*
X04555Y2131*
X05058Y20808*
X05184Y20724*
X05332Y20694*
X11523*
X11671Y20724*
X11797Y20808*
X12712Y21722*
X12796Y21848*
X12825Y21997*
Y22117*
X13073*
Y21016*
X11262Y19205*
X11178Y19079*
X11148Y1893*
Y1771*
X11021Y17691*
X11015Y177*
X10646Y18069*
X1052Y18153*
X10371Y18183*
X08769*
X0862Y18153*
X08494Y18069*
X08486Y18062*
X08359Y18114*
Y18199*
X08299Y18346*
X08186Y18459*
X08039Y18519*
X0788*
X07733Y18459*
X0762Y18346*
X07559Y18199*
Y1804*
X0762Y17893*
X0768Y17833*
X07628Y17706*
X07214*
X07065Y17676*
X06939Y17592*
X03755Y14409*
X03389*
Y17182*
X03426Y17219*
X0351Y17345*
X0354Y17494*
Y20878*
X0351Y21027*
X03426Y21153*
X02898Y21681*
X02772Y21765*
X02623Y21795*
X-01123*
X-01272Y21765*
X-01398Y21681*
X-01745Y21333*
X-03078*
X-03167Y21424*
Y21429*
X-01871Y22725*
X03903*
X04442Y22186*
G37*
G36*
X-01259Y19841D02*
X-01069Y19732D01*
X-00859Y19675*
X-0064*
X-00506Y19712*
X01962Y17242*
Y15439*
X01835Y15386*
X01809Y15413*
X01624Y15489*
X01423*
X01238Y15413*
X01096Y15271*
X01019Y15086*
Y14885*
X01096Y147*
X01238Y14558*
X01312Y14527*
Y14409*
X-01884*
X-01908Y1453*
X-01993Y14656*
X-03167Y1583*
Y19585*
X-03078Y19675*
X-0142*
Y19823*
X-01293Y19876*
X-01259Y19841*
G37*
G36*
X-08615Y16017D02*
X-08623Y16009D01*
X-08788Y15723*
X-08873Y15405*
Y15332*
X-08991Y15284*
X-09221Y15514*
X-09347Y15598*
X-09496Y15628*
X-11505*
X-11531Y15723*
X-1158Y15809*
X-11155Y16235*
X-11071Y16361*
X-11041Y1651*
Y16637*
X-10425*
Y17661*
X-10308Y1771*
X-08615Y16017*
G37*
G36*
X08909Y1722D02*
Y15859D01*
X09297*
Y15481*
X08831*
Y14023*
X08211Y13403*
X05158*
X05009Y13373*
X04883Y13289*
X04422Y12828*
X04305Y12876*
Y13859*
X07374Y16929*
X08292*
X0844Y16959*
X08566Y17043*
X08792Y17269*
X08909Y1722*
G37*
G36*
X1075Y15438D02*
X1078Y1529D01*
X10864Y15164*
X11195Y14832*
Y13573*
X12069*
X12118Y13456*
X11286Y12625*
X08704*
X08667Y127*
X08659Y12752*
X09381Y13473*
X10539*
Y15481*
X10074*
Y15859*
X1075*
Y15438*
G37*
G36*
X1158Y05649D02*
X11531Y05563D01*
X11445Y05245*
Y04914*
X11531Y04595*
X11696Y0431*
X11929Y04076*
X12215Y03911*
X12534Y03825*
X12565*
Y03543*
X12099*
Y02928*
X117*
Y03443*
X09117*
X08437Y04123*
X08623Y0431*
X08788Y04595*
X08873Y04914*
Y05245*
X08788Y05563*
X08623Y05849*
X08389Y06083*
X08103Y06248*
X07785Y06333*
X07454*
X07135Y06248*
X06849Y06083*
X06616Y05849*
X06451Y05563*
X06365Y05245*
Y04914*
X06451Y04595*
X06616Y0431*
X06849Y04076*
X07135Y03911*
X07231Y03885*
Y03208*
X01363Y-02659*
X-03152*
Y-02074*
X-03182Y-01925*
X-03266Y-01799*
X-03489Y-01576*
X-03615Y-01492*
X-03667Y-01481*
Y-00527*
X-05262*
X-05311Y-0041*
X-03764Y01135*
X-02432*
X-02283Y01165*
X-02157Y01249*
X00025Y03433*
X0011Y03559*
X00139Y03707*
Y05301*
X01909*
X01921Y05174*
X01858Y05111*
X01781Y04926*
Y04725*
X01858Y0454*
X02Y04398*
X02185Y04321*
X02386*
X02571Y04398*
X02713Y0454*
X02725Y04569*
X02862*
X02874Y0454*
X03016Y04398*
X03201Y04321*
X03402*
X03587Y04398*
X03729Y0454*
X03805Y04725*
Y04926*
X03729Y05111*
X03666Y05174*
X03719Y05301*
X04305*
Y07147*
X10082*
X1158Y05649*
G37*
G36*
X-03302Y05301D02*
X-02772D01*
X-02724Y05183*
X-07773Y00134*
X-0955*
X-09699Y00104*
X-09825Y0002*
X-10449Y-00603*
X-10533Y-00729*
X-10563Y-00878*
Y-00879*
X-11424Y-01741*
X-11541Y-01692*
Y-01368*
X-098Y00373*
X-07894*
X-07746Y00403*
X-0762Y00487*
X-07471Y00636*
X-07387Y00762*
X-07357Y0091*
Y0263*
X-0723Y02682*
X-0717Y02622*
X-07023Y02561*
X-06864*
X-06717Y02622*
X-06604Y02735*
X-06543Y02882*
Y03041*
X-06604Y03188*
X-06717Y03301*
X-06864Y03361*
X-07023*
X-0717Y03301*
X-0723Y03241*
X-07357Y03293*
Y03446*
X-07165Y03638*
X-07081Y03764*
X-07051Y03913*
Y05445*
X-0666*
Y07147*
X-03302*
Y05301*
G37*
G36*
X-06209Y-00298D02*
X-06227Y-00389D01*
Y-02034*
X-06198Y-02183*
X-06114Y-02309*
X-05722Y-02701*
X-05596Y-02785*
X-05475Y-02809*
Y-03111*
X-06116Y-03752*
X-062Y-03878*
X-0623Y-04026*
Y-04225*
X-06845*
Y-05672*
X-07631*
Y-04225*
X-08755*
Y-03789*
X-08239*
Y-02909*
X-08207Y-02887*
X-07471Y-02151*
X-07387Y-02025*
X-07357Y-01876*
Y-01769*
X-0723Y-01717*
X-0717Y-01777*
X-07023Y-01837*
X-06864*
X-06717Y-01777*
X-06604Y-01664*
X-06543Y-01517*
Y-01358*
X-06604Y-01211*
X-06717Y-01098*
X-06864Y-01037*
X-06949*
X-07001Y-0091*
X-06326Y-00235*
X-06209Y-00298*
G37*
%LNflightstick_buttonpanelv3r_copper_signal_bot-4*%
%LPC*%
G36*
X00197Y02003D02*
X-00197D01*
X-00584Y01926*
X-00949Y01775*
X-01277Y01556*
X-01556Y01277*
X-01775Y00949*
X-01926Y00584*
X-02003Y00197*
Y-00197*
X-01926Y-00584*
X-01775Y-00949*
X-01556Y-01277*
X-01277Y-01556*
X-00949Y-01775*
X-00584Y-01926*
X-00197Y-02003*
X00197*
X00584Y-01926*
X00949Y-01775*
X01277Y-01556*
X01556Y-01277*
X01775Y-00949*
X01926Y-00584*
X02003Y-00197*
Y00197*
X01926Y00584*
X01775Y00949*
X01556Y01277*
X01277Y01556*
X00949Y01775*
X00584Y01926*
X00197Y02003*
G37*
%LNflightstick_buttonpanelv3r_copper_signal_bot-5*%
%LPD*%
G54D11*
X07619Y04391D02*
Y0508D01*
Y04391D02*
X07835D01*
X07954Y04057D02*
Y04273D01*
X09073Y03062D02*
X09471Y02664D01*
X07835Y04391D02*
X07954Y04273D01*
X09471Y0254D02*
Y02664D01*
X07619Y03047D02*
Y04391D01*
X07954Y04057D02*
X08948Y03062D01*
X09073*
X10243Y07536D02*
X12954Y04825D01*
Y02611D02*
Y04825D01*
X-08602Y0762D02*
X-08178Y08044D01*
X-11439Y0762D02*
X-08602D01*
X-12047Y07011D02*
X-11439Y0762D01*
X00319Y08044D02*
X00489Y07874D01*
X-08178Y08044D02*
X00319D01*
X00489Y07874D02*
D01*
X-08491Y07011D02*
X-07967Y07536D01*
X00109D02*
X00332Y07313D01*
Y06424D02*
Y07313D01*
X-07967Y07536D02*
X00109D01*
X-08491Y06872D02*
Y07011D01*
X00982Y06424D02*
Y07381D01*
X00489Y07874D02*
X00982Y07381D01*
X-0889Y06474D02*
X-08491Y06872D01*
X-0354Y-03048D02*
X01524D01*
X07619Y03047*
X-0354Y-03048D02*
Y-02074D01*
Y-04667D02*
Y-03048D01*
X07214Y17317D02*
X08292D01*
X08769Y17794D02*
X10371D01*
X03751Y13855D02*
X07214Y17317D01*
X08292D02*
X08769Y17794D01*
X1074Y17161D02*
Y17425D01*
Y17161D02*
X11138Y16764D01*
X10371Y17794D02*
X1074Y17425D01*
X03751Y13355D02*
Y13855D01*
X0483Y21585D02*
X05332Y21082D01*
X-04318Y14824D02*
Y22098D01*
X07488Y23182D02*
X07627Y23321D01*
X-03211Y24219D02*
X06555D01*
X-02794Y23622D02*
X04274D01*
X0483Y21585D02*
Y22347D01*
X04274Y23622D02*
X04713Y23182D01*
X-04318Y22098D02*
X-02794Y23622D01*
X-02032Y23114D02*
X04064D01*
X05332Y21082D02*
X11523D01*
X-03556Y15669D02*
Y2159D01*
X07627Y23321D02*
X08335D01*
X04064Y23114D02*
X0483Y22347D01*
X-03556Y2159D02*
X-02032Y23114D01*
X04713Y23182D02*
X07488D01*
X08335Y23321D02*
X08978Y23964D01*
X02318Y04858D02*
Y06322D01*
X02351Y06355*
X02286Y04826D02*
X02318Y04858D01*
X0302Y05174D02*
Y06007D01*
X02932Y06096D02*
X0302Y06007D01*
Y05174D02*
X03302Y04892D01*
Y04826D02*
Y04892D01*
X01524Y14919D02*
X01701Y14742D01*
Y13355D02*
Y14742D01*
X01524Y14919D02*
Y14986D01*
X-13859Y19012D02*
X-13844D01*
X-1397D02*
X-13859D01*
X-13304Y18472D02*
X-10522D01*
X-13844Y19012D02*
X-13304Y18472D01*
X-0762Y1524D02*
Y1557D01*
X-10522Y18472D02*
X-0762Y1557D01*
X-0996Y00762D02*
X-07894D01*
X-07745Y0091D02*
Y03607D01*
X-07894Y00762D02*
X-07745Y0091D01*
X-07982Y0337D02*
X-07745Y03607D01*
X-07439Y03913*
X-12446Y-01597D02*
X-1232D01*
X-0996Y00762*
X-0955Y-00254D02*
X-07612D01*
X-10174Y-00878D02*
X-0955Y-00254D01*
X-07612D02*
X-02184Y05174D01*
X-10995Y0635D02*
X-10597Y05951D01*
Y04171D02*
Y05951D01*
Y04171D02*
X-09797Y0337D01*
X-07982*
X-07439Y03913D02*
Y0635D01*
X-10744Y-05267D02*
X-09951Y-0606D01*
X-04934*
X-0354Y-04667*
X-03764Y-0185D02*
X-0354Y-02074D01*
X-03902Y-0185D02*
X-03764D01*
X-04446Y-01306D02*
X-03902Y-0185D01*
X-04572Y-01306D02*
X-04446D01*
X-05842Y-04026D02*
X-05094Y-03279D01*
X-05842Y-0508D02*
Y-04026D01*
X-12843Y-01995D02*
X-12446Y-01597D01*
X-13576Y-02465D02*
X-13107Y-01995D01*
X-13576Y-05837D02*
X-13353Y-0606D01*
X-11538*
X-10744Y-02898D02*
X-09951Y-02104D01*
X-13107Y-01995D02*
X-12843D01*
X-09951Y-02104D02*
X-09812D01*
X-10744Y-05267D02*
Y-02898D01*
X-13576Y-05837D02*
Y-02465D01*
X-09812Y-02104D02*
X-09268Y-0156D01*
X-09144*
X-11538Y-0606D02*
X-10744Y-05267D01*
X-05094Y-02426D02*
X-0508Y-02441D01*
X-05839Y-02034D02*
X-05447Y-02426D01*
X-0508Y-02794D02*
Y-02441D01*
X-05839Y-02034D02*
Y-00389D01*
X-05447Y-02426D02*
X-05094D01*
X-04696Y-02756D02*
X-04572D01*
X-05094Y-03154D02*
X-04696Y-02756D01*
X-05094Y-03279D02*
Y-03154D01*
X-05839Y-00389D02*
X-03925Y01524D01*
X-02432*
X-00248Y03707*
Y06355*
X10922Y0254D02*
X12954D01*
X0177Y06424D02*
Y07313D01*
X01701Y06355D02*
X0177Y06424D01*
Y07313D02*
X01993Y07536D01*
X10243*
X00982Y06424D02*
X01051Y06355D01*
X00332Y06424D02*
X00401Y06355D01*
X-03569Y02145D02*
X-00898Y04816D01*
Y06355*
X-02184Y05174D02*
X-0184D01*
X-01617Y05397*
Y06286*
X-01548Y06355*
X-12446Y0635D02*
X-12047Y06747D01*
Y07011*
X-0889Y0635D02*
Y06474D01*
X-10174Y-0104D02*
Y-00878D01*
X-11638Y-02503D02*
X-10174Y-0104D01*
X-11776Y-02503D02*
X-11638D01*
X-12446Y-03048D02*
X-1232D01*
X-11776Y-02503*
X-08745Y-02612D02*
X-08482D01*
X-07745Y-01876*
Y-01105*
X-04494Y02145*
X-09144Y-0301D02*
X-08745Y-02612D01*
X-04494Y02145D02*
X-03569D01*
X09906Y24417D02*
Y26162D01*
X09685Y1676D02*
X09688Y16764D01*
X09685Y14478D02*
Y1676D01*
Y14327D02*
Y14478D01*
X08372Y13014D02*
X09685Y14327D01*
X05158Y13014D02*
X08372D01*
X01343Y12174D02*
X04318D01*
X0112Y12397D02*
X01343Y12174D01*
X0112Y12397D02*
Y13286D01*
X01051Y13355D02*
X0112Y13286D01*
X04318Y12174D02*
X05158Y13014D01*
X09779Y23964D02*
X10034Y24219D01*
X08978Y23964D02*
X09779D01*
X-02267Y13424D02*
X-02198Y13355D01*
X-03556Y15669D02*
X-02267Y14381D01*
Y13424D02*
Y14381D01*
X-02917Y13424D02*
Y14313D01*
X-04029Y14536D02*
X-0314D01*
X-04318Y14824D02*
X-04029Y14536D01*
X-0314D02*
X-02917Y14313D01*
Y13424D02*
X-02848Y13355D01*
X-04826Y22606D02*
X-03211Y24219D01*
X-04826Y14582D02*
Y22606D01*
Y14582D02*
X-03598Y13355D01*
X-00317Y13286D02*
X-00248Y13355D01*
X-0643Y12174D02*
X-0054D01*
X-00317Y12397*
X-127Y1524D02*
X-09496D01*
X-0643Y12174*
X-00317Y12397D02*
Y13286D01*
X06858Y27648D02*
X12152D01*
X-00749Y25584D02*
X01313Y27648D01*
X06858*
X14231Y27246D02*
X14592Y26885D01*
X12554Y27246D02*
X14231D01*
X12152Y27648D02*
X12554Y27246D01*
X14592Y23764D02*
Y26885D01*
X14269Y2344D02*
X14592Y23764D01*
X1413Y2344D02*
X14269D01*
X13586Y22896D02*
X1413Y2344D01*
X13462Y22896D02*
X13586D01*
X-01123Y21406D02*
X02623D01*
X03151Y20878*
Y17494D02*
Y20878D01*
X03001Y17343D02*
X03151Y17494D01*
X03001Y13355D02*
Y17343D01*
X-02249Y20504D02*
X-01855Y20898D01*
X-01631D02*
X-01123Y21406D01*
X-01855Y20898D02*
X-01631D01*
X-00749Y20504D02*
X02351Y17403D01*
Y13355D02*
Y17403D01*
X12437Y21997D02*
Y22207D01*
X1243Y22214D02*
X12437Y22207D01*
X11523Y21082D02*
X12437Y21997D01*
X11536Y17161D02*
Y1893D01*
X13462Y20855D02*
Y22896D01*
X11536Y1893D02*
X13462Y20855D01*
X11138Y16764D02*
X11536Y17161D01*
X1243Y22214D02*
Y23844D01*
X12594Y24008*
X13123*
X13462Y24346*
X06555Y24219D02*
X06858Y24521D01*
Y25908*
X04528Y11666D02*
X05036Y12174D01*
X01132Y11666D02*
X04528D01*
X05036Y12174D02*
X06039D01*
X0047Y12328D02*
Y13286D01*
Y12328D02*
X01132Y11666D01*
X06039Y12174D02*
X06101Y12236D01*
X11447*
X00401Y13355D02*
X0047Y13286D01*
X11447Y12236D02*
X1288Y1367D01*
Y13808*
X13424Y14352*
Y14478*
X13462Y14514D02*
Y16475D01*
X13424Y14478D02*
X13462Y14514D01*
X11138Y15438D02*
X11974Y14602D01*
X11138Y15438D02*
Y16764D01*
X11974Y14478D02*
Y14602D01*
X13462Y24346D02*
Y26127D01*
X-13238Y23304D02*
X-13081D01*
X-13462Y23081D02*
X-13238Y23304D01*
X-13462Y1941D02*
Y23081D01*
X-13859Y19012D02*
X-13462Y1941D01*
X-12763Y23622D02*
X-12446D01*
X-13081Y23304D02*
X-12763Y23622D01*
X-1016D02*
X-07874D01*
X-12446D02*
X-1016D01*
X-127Y1524D02*
X-1143Y1651D01*
Y17491*
X-13898D02*
X-1143D01*
X-1397Y17562D02*
X-13898Y17491D01*
X-0889Y04351D02*
Y0635D01*
X-12446Y04572D02*
Y0635D01*
X-09144Y-04606D02*
X-0867Y-0508D01*
X-09144Y-04606D02*
Y-0301D01*
X-0867Y-0508D02*
X-08636D01*
X-12446D02*
Y-03048D01*
G54D12*
X0Y0D03*
X1016Y1016D03*
X-1016D03*
G54D13*
X-0762Y1524D03*
X-127D03*
X-0762Y2794D03*
X-127D03*
X07619Y0508D03*
X12699D03*
X07619Y-0762D03*
X12699D03*
G54D14*
X02249Y20504D03*
X00749D03*
X-00749D03*
G54D15*
X-02249Y20504D03*
G54D16*
X00749Y25584D03*
G54D17*
X-00749Y25584D03*
G54D18*
X-05613Y04037D03*
X-05919Y-05013D03*
X-08719D03*
X-12419D03*
X-08719Y06485D03*
X-12419D03*
X-07899Y22579D03*
X03302Y04826D03*
X02286D03*
X01524Y14986D03*
X-10185Y22579D03*
X-12471D03*
X09906Y26162D03*
X06883Y26043D03*
X13383D03*
X13409Y14569D03*
X09683Y14543D03*
X08128Y14478D03*
X13435Y18549D03*
X09906Y22317D03*
G54D19*
X03751Y06355D03*
X-03598D03*
Y13355D03*
X03751D03*
G54D20*
X03001Y06355D03*
X02351D03*
X01701D03*
X01051D03*
X00401D03*
X-00248D03*
X-00898D03*
X-01548D03*
X-02198D03*
X-02848D03*
Y13355D03*
X-02198D03*
X-01548D03*
X-00898D03*
X-00248D03*
X00401D03*
X01051D03*
X01701D03*
X02351D03*
X03001D03*
G54D21*
X07585Y14478D03*
X09685D03*
X12954Y0254D03*
X15053D03*
G54D22*
X09688Y16764D03*
X11138D03*
X13424Y14478D03*
X11974D03*
X09471Y0254D03*
X10922D03*
X-10995Y0635D03*
X-12446D03*
X-07439D03*
X-0889D03*
G54D23*
X13462Y18575D03*
Y16475D03*
Y28227D03*
Y26127D03*
X-1143Y17491D03*
Y19591D03*
X09906Y24417D03*
Y22317D03*
X0635Y24163D03*
Y22063D03*
X-12446Y-0508D03*
Y-07179D03*
Y04572D03*
Y02471D03*
X-08636Y-0508D03*
Y-07179D03*
X-0889Y04351D03*
Y02251D03*
X-05842Y-0508D03*
Y-07179D03*
G54D24*
X13462Y24346D03*
Y22896D03*
X09906Y26162D03*
Y27611D03*
X06858Y26198D03*
Y27648D03*
X-1397Y19012D03*
Y17562D03*
X-12446Y-01597D03*
Y-03048D03*
X-09144Y-0156D03*
Y-0301D03*
X-04572Y-01306D03*
Y-02756D03*
G54D25*
X-07874Y2159D03*
Y22606D03*
Y23622D03*
X-1016Y2159D03*
Y22606D03*
Y23622D03*
X-12446Y2159D03*
Y22606D03*
Y23622D03*
M02*