%FSTAX23Y23*%
%MOMM*%
%SFA1B1*%

%IPPOS*%
%ADD26C,0.253999*%
%LNflightstick_buttonpanelv3r_legend_top-1*%
%LPD*%
G54D26*
X15359Y15819D02*
Y24819D01*
X04959Y15819D02*
Y24819D01*
X15359*
X04959Y15819D02*
X15359D01*
X-14343Y05261D02*
X-03943D01*
X-14343Y-03737D02*
X-03943D01*
Y05261*
X-14343Y-03737D02*
Y05261D01*
X-1524Y1778D02*
X-0508D01*
Y254*
X-1524D02*
X-0508D01*
X-1524Y1778D02*
Y254D01*
X05079Y0254D02*
X15239D01*
X05079Y-0508D02*
Y0254D01*
Y-0508D02*
X15239D01*
Y0254*
X-01524Y-05762D02*
Y-04763D01*
X-01024*
X-00857Y-04929*
Y-05262*
X-01024Y-05429*
X-01524*
X-0119D02*
X-00857Y-05762D01*
X-00524D02*
X-00191D01*
X-00357*
Y-05096*
X-00524*
X00641Y-06096D02*
X00808D01*
X00975Y-05929*
Y-05096*
X00475*
X00308Y-05262*
Y-05596*
X00475Y-05762*
X00975*
X01308Y-04763D02*
Y-05762D01*
Y-05262*
X01475Y-05096*
X01808*
X01974Y-05262*
Y-05762*
X02474Y-04929D02*
Y-05096D01*
X02308*
X02641*
X02474*
Y-05596*
X02641Y-05762*
X-02294Y03714D02*
Y03881D01*
X-0246*
Y03714*
X-02294*
X-02127Y03881*
Y04214*
X-02294Y0438*
X-02627*
X-02794Y04214*
Y03547*
X-02627Y03381*
X-02127*
X-01794Y0438D02*
Y03381D01*
X-01294*
X-01127Y03547*
Y03714*
X-01294Y03881*
X-01794*
X-01294*
X-01127Y04047*
Y04214*
X-01294Y0438*
X-01794*
X-00628Y04047D02*
X-00294D01*
X-00128Y03881*
Y03381*
X-00628*
X-00794Y03547*
X-00628Y03714*
X-00128*
X00205Y03381D02*
Y04047D01*
X00704*
X00871Y03881*
Y03381*
X01204Y03048D02*
X01371D01*
X01537Y03214*
Y04047*
X02704Y03381D02*
X0237D01*
X02204Y03547*
Y03881*
X0237Y04047*
X02704*
X0287Y03881*
Y03714*
X02204*
X03204Y04047D02*
Y03381D01*
Y03714*
X0337Y03881*
X03537Y04047*
X03703*
X0487Y03381D02*
X04203D01*
X0487Y04047*
Y04214*
X04703Y0438*
X0437*
X04203Y04214*
X05203Y03381D02*
X05536D01*
X0537*
Y0438*
X05203Y04214*
X-07461Y1327D02*
X-08128D01*
Y12771*
X-07794*
X-08128*
Y12271*
X-07128D02*
X-06795D01*
X-06961*
Y1327*
X-07128*
X-06295Y12271D02*
X-05962D01*
X-06128*
Y12937*
X-06295*
X-05128Y11938D02*
X-04962D01*
X-04795Y12104*
Y12937*
X-05295*
X-05462Y12771*
Y12437*
X-05295Y12271*
X-04795*
X-04462Y1327D02*
Y12271D01*
Y12771*
X-04295Y12937*
X-03962*
X-03796Y12771*
Y12271*
X-03296Y13104D02*
Y12937D01*
X-03462*
X-03129*
X-03296*
Y12437*
X-03129Y12271*
X-02629D02*
X-02129D01*
X-01963Y12437*
X-02129Y12604*
X-02463*
X-02629Y12771*
X-02463Y12937*
X-01963*
X-01463Y13104D02*
Y12937D01*
X-0163*
X-01296*
X-01463*
Y12437*
X-01296Y12271*
X-00797D02*
X-00463D01*
X-0063*
Y12937*
X-00797*
X00702D02*
X00202D01*
X00036Y12771*
Y12437*
X00202Y12271*
X00702*
X01035D02*
Y1327D01*
Y12604D02*
X01535Y12937D01*
X01035Y12604D02*
X01535Y12271D01*
X03035Y11938D02*
Y12937D01*
X03534*
X03701Y12771*
Y12437*
X03534Y12271*
X03035*
X04034Y12937D02*
Y12271D01*
Y12604*
X04201Y12771*
X04367Y12937*
X04534*
X05201Y12271D02*
X05534D01*
X057Y12437*
Y12771*
X05534Y12937*
X05201*
X05034Y12771*
Y12437*
X05201Y12271*
X06034Y11938D02*
X062D01*
X06367Y12104*
Y12937*
X07533Y12271D02*
X072D01*
X07033Y12437*
Y12771*
X072Y12937*
X07533*
X077Y12771*
Y12604*
X07033*
X08699Y12937D02*
X082D01*
X08033Y12771*
Y12437*
X082Y12271*
X08699*
X09199Y13104D02*
Y12937D01*
X09033*
X09366*
X09199*
Y12437*
X09366Y12271*
M02*