%FSTAX23Y23*%
%MOMM*%
%SFA1B1*%

%IPPOS*%
%ADD10R,0.899998X1.499997*%
%ADD11C,0.253999*%
%ADD12C,3.499993*%
%ADD13C,1.999996*%
%ADD14C,1.149998*%
%ADD15R,1.149998X1.149998*%
%ADD16C,1.199998*%
%ADD17R,1.199998X1.199998*%
%ADD18C,0.499999*%
%LNflightstick_buttonpanelv3r_copper_signal_top-1*%
%LPD*%
G36*
X16579Y29772D02*
Y13054D01*
X16424Y13*
X16408Y12991*
X1639Y12986*
X16006Y12799*
X15986Y12784*
X15964Y12774*
X15614Y12528*
X15597Y1251*
X15576Y12497*
X1527Y12198*
X15256Y12178*
X15238Y12161*
X14984Y11818*
X14973Y11795*
X14958Y11776*
X14761Y11396*
X14755Y11373*
X14742Y11351*
X14609Y10945*
X14606Y1092*
X14598Y10897*
X14531Y10475*
X14532Y1045*
X14527Y10426*
X14529Y09998*
X14534Y09974*
X14533Y0995*
X14602Y09528*
X14611Y09505*
X14614Y0948*
X1475Y09075*
X14762Y09053*
X14769Y0903*
X14968Y08651*
X14984Y08632*
X14995Y0861*
X15251Y08268*
X1527Y08252*
X15284Y08231*
X15592Y07935*
X15613Y07921*
X1563Y07904*
X15981Y0766*
X16004Y0765*
X16023Y07635*
X16409Y07451*
X16427Y07446*
X16443Y07437*
X16571Y07394*
Y-09219*
X-16583*
Y07391*
X-16436Y07441*
X-1642Y0745*
X-16402Y07455*
X-16017Y07641*
X-15997Y07656*
X-15975Y07666*
X-15624Y07911*
X-15607Y07928*
X-15587Y07942*
X-1528Y08239*
X-15266Y0826*
X-15248Y08276*
X-14992Y08619*
X-14981Y08641*
X-14966Y0866*
X-14769Y0904*
X-14762Y09063*
X-14749Y09085*
X-14615Y0949*
X-14612Y09515*
X-14603Y09538*
X-14535Y0996*
X-14536Y09978*
X-14531Y09996*
X-14523Y1021*
X-14525Y10222*
X-14523Y10235*
X-14531Y10448*
X-14536Y10466*
X-14535Y10485*
X-14603Y10907*
X-14612Y1093*
X-14615Y10954*
X-14749Y1136*
X-14762Y11382*
X-14769Y11405*
X-14966Y11784*
X-14981Y11803*
X-14992Y11826*
X-15248Y12168*
X-15266Y12185*
X-1528Y12205*
X-15587Y12503*
X-15607Y12516*
X-15624Y12534*
X-15975Y12779*
X-15997Y12789*
X-16017Y12804*
X-16402Y1299*
X-1642Y12994*
X-16436Y13004*
X-16583Y13054*
Y2975*
X-16466Y29793*
X-16458Y29793*
X16456*
X16579Y29772*
G37*
%LNflightstick_buttonpanelv3r_copper_signal_top-2*%
%LPC*%
G36*
X-07454Y29193D02*
X-07785D01*
X-08104Y29108*
X-08389Y28943*
X-08623Y28709*
X-08788Y28423*
X-08873Y28105*
Y27774*
X-08788Y27455*
X-08623Y2717*
X-08389Y26936*
X-08104Y26771*
X-07785Y26685*
X-07454*
X-07135Y26771*
X-0685Y26936*
X-06616Y2717*
X-06451Y27455*
X-06365Y27774*
Y28105*
X-06451Y28423*
X-06616Y28709*
X-0685Y28943*
X-07135Y29108*
X-07454Y29193*
G37*
G36*
X-12534D02*
X-12865D01*
X-13184Y29108*
X-13469Y28943*
X-13703Y28709*
X-13868Y28423*
X-13953Y28105*
Y27774*
X-13868Y27455*
X-13703Y2717*
X-13469Y26936*
X-13184Y26771*
X-12865Y26685*
X-12534*
X-12215Y26771*
X-1193Y26936*
X-11696Y2717*
X-11531Y27455*
X-11445Y27774*
Y28105*
X-11531Y28423*
X-11696Y28709*
X-1193Y28943*
X-12215Y29108*
X-12534Y29193*
G37*
G36*
X00876Y26435D02*
Y25711D01*
X016*
X01545Y25914*
X01433Y26109*
X01274Y26268*
X01079Y2638*
X00876Y26435*
G37*
G36*
X14113Y27073D02*
X12705D01*
Y25065*
X14113*
Y27073*
G37*
G36*
X10414D02*
X09005D01*
Y25065*
X10414*
Y27073*
G37*
G36*
X07613D02*
X06205D01*
Y25065*
X07613*
Y27073*
G37*
G36*
X08039Y22919D02*
X0788D01*
X07733Y22859*
X0762Y22746*
X07559Y22599*
Y2244*
X0762Y22293*
X07733Y2218*
X0788Y22119*
X08039*
X08186Y2218*
X08299Y22293*
X08359Y2244*
Y22599*
X08299Y22746*
X08186Y22859*
X08039Y22919*
G37*
G36*
X00103Y26438D02*
X-01603D01*
Y2473*
X-00445*
X00361Y23924*
Y21237*
X0024Y21168*
X00086Y21014*
X00063Y20973*
X-00063*
X-00086Y21014*
X-0024Y21168*
X-00429Y21277*
X-0064Y21333*
X-00859*
X-01069Y21277*
X-01259Y21168*
X-01293Y21133*
X-0142Y21185*
Y21333*
X-03078*
Y20008*
X-03196Y1996*
X-07175Y23939*
X-07301Y24023*
X-0745Y24053*
X-08349*
X-08498Y24023*
X-08624Y23939*
X-09018Y23545*
X-11894*
X-12043Y23515*
X-12169Y23431*
X-12517Y23083*
X-12572*
X-12757Y23007*
X-12899Y22865*
X-12975Y2268*
Y22479*
X-12899Y22294*
X-12757Y22152*
X-12572Y22075*
X-12371*
X-12186Y22152*
X-12044Y22294*
X-11967Y22479*
Y22534*
X-11734Y22768*
X-10748*
X-10689Y2268*
Y22479*
X-10613Y22294*
X-10471Y22152*
X-10286Y22075*
X-10085*
X-099Y22152*
X-09861Y22191*
X-08715*
X-08567Y22221*
X-08463Y2229*
X-08327Y22294*
X-08185Y22152*
X-08Y22075*
X-07945*
X-03195Y17326*
Y09918*
X-03165Y0977*
X-03081Y09644*
X01781Y0478*
Y04725*
X01723Y04637*
X00277*
X-01871Y06786*
X-01997Y0687*
X-02146Y069*
X-05189*
Y07515*
X-05505*
Y13513*
X-05535Y13662*
X-05619Y13788*
X-065Y1467*
X-06451Y14755*
X-06365Y15074*
Y15405*
X-06451Y15723*
X-06616Y16009*
X-0685Y16243*
X-07135Y16408*
X-07454Y16493*
X-07785*
X-08104Y16408*
X-08389Y16243*
X-08623Y16009*
X-08788Y15723*
X-08873Y15405*
Y15074*
X-08788Y14755*
X-08623Y1447*
X-08389Y14236*
X-08104Y14071*
X-07785Y13985*
X-07454*
X-07135Y14071*
X-0705Y1412*
X-06282Y13353*
Y07515*
X-06597*
Y05507*
X-05189*
Y06123*
X-02307*
X-00158Y03974*
X-00032Y0389*
X00116Y0386*
X06497*
X06646Y0389*
X06772Y03974*
X06865Y04067*
X07135Y03911*
X07454Y03825*
X07785*
X08103Y03911*
X08389Y04076*
X08623Y0431*
X08788Y04595*
X08873Y04914*
Y05245*
X08788Y05563*
X08623Y05849*
X08389Y06083*
X08103Y06248*
X08008Y06274*
Y13559*
X07978Y13708*
X07894Y13834*
X07613Y14115*
Y15573*
X06755*
X04295Y18033*
X04169Y18117*
X04021Y18147*
X03657*
X02255Y19548*
X02307Y19675*
X02359*
X02569Y19732*
X02758Y19841*
X02913Y19995*
X03022Y20184*
X03074Y20377*
X0225*
Y20504*
X02123*
Y21329*
X0193Y21277*
X0174Y21168*
X01586Y21014*
X01563Y20973*
X01436*
X01413Y21014*
X01259Y21168*
X01138Y21237*
Y24084*
X01108Y24233*
X01024Y24359*
X0077Y24613*
X00819Y2473*
X00862*
X01079Y24789*
X01274Y24901*
X01433Y2506*
X01545Y25255*
X016Y25457*
X00749*
Y25584*
X00622*
Y26435*
X0042Y2638*
X0023Y26271*
X00163Y26287*
X00103Y26312*
Y26438*
G37*
G36*
X02377Y21329D02*
Y20631D01*
X03074*
X03022Y20824*
X02913Y21014*
X02758Y21168*
X02569Y21277*
X02377Y21329*
G37*
G36*
X08039Y18519D02*
X0788D01*
X07733Y18459*
X0762Y18346*
X07559Y18199*
Y1804*
X0762Y17893*
X07733Y1778*
X0788Y17719*
X08039*
X08186Y1778*
X08299Y17893*
X08359Y1804*
Y18199*
X08299Y18346*
X08186Y18459*
X08039Y18519*
G37*
G36*
X-12534Y16493D02*
X-12865D01*
X-13184Y16408*
X-13469Y16243*
X-13703Y16009*
X-13868Y15723*
X-13953Y15405*
Y15074*
X-13868Y14755*
X-13703Y1447*
X-13469Y14236*
X-13184Y14071*
X-12865Y13985*
X-12534*
X-12215Y14071*
X-1193Y14236*
X-11696Y1447*
X-11531Y14755*
X-11445Y15074*
Y15405*
X-11531Y15723*
X-11696Y16009*
X-1193Y16243*
X-12215Y16408*
X-12534Y16493*
G37*
G36*
X14113Y15573D02*
X12705D01*
Y13565*
X14113*
Y15573*
G37*
G36*
X10414D02*
X09005D01*
Y13565*
X10414*
Y15573*
G37*
G36*
X10357Y12163D02*
X09962D01*
X09575Y12086*
X0921Y11935*
X08882Y11716*
X08603Y11437*
X08384Y11109*
X08233Y10744*
X08155Y10357*
Y09962*
X08233Y09575*
X08384Y0921*
X08603Y08882*
X08882Y08603*
X0921Y08384*
X09575Y08233*
X09962Y08155*
X10357*
X10744Y08233*
X11109Y08384*
X11437Y08603*
X11716Y08882*
X11935Y0921*
X12086Y09575*
X12163Y09962*
Y10357*
X12086Y10744*
X11935Y11109*
X11716Y11437*
X11437Y11716*
X11109Y11935*
X10744Y12086*
X10357Y12163*
G37*
G36*
X-09962D02*
X-10357D01*
X-10744Y12086*
X-11109Y11935*
X-11437Y11716*
X-11716Y11437*
X-11935Y11109*
X-12086Y10744*
X-12163Y10357*
Y09962*
X-12086Y09575*
X-11935Y0921*
X-11716Y08882*
X-11437Y08603*
X-11109Y08384*
X-10744Y08233*
X-10357Y08155*
X-09962*
X-09575Y08233*
X-0921Y08384*
X-08882Y08603*
X-08603Y08882*
X-08384Y0921*
X-08233Y09575*
X-08155Y09962*
Y10357*
X-08233Y10744*
X-08384Y11109*
X-08603Y11437*
X-08882Y11716*
X-0921Y11935*
X-09575Y12086*
X-09962Y12163*
G37*
G36*
X-07989Y07515D02*
X-09398D01*
Y05507*
X-07989*
Y07515*
G37*
G36*
X-11689D02*
X-13097D01*
Y05507*
X-11689*
Y07515*
G37*
G36*
X12865Y06333D02*
X12534D01*
X12215Y06248*
X11929Y06083*
X11696Y05849*
X11531Y05563*
X11445Y05245*
Y04914*
X11531Y04595*
X11696Y0431*
X11929Y04076*
X12215Y03911*
X12534Y03825*
X12865*
X13183Y03911*
X13469Y04076*
X13703Y0431*
X13868Y04595*
X13953Y04914*
Y05245*
X13868Y05563*
X13703Y05849*
X13469Y06083*
X13183Y06248*
X12865Y06333*
G37*
G36*
X-06864Y03361D02*
X-07023D01*
X-0717Y03301*
X-07283Y03188*
X-07343Y03041*
Y02882*
X-07283Y02735*
X-0717Y02622*
X-07023Y02561*
X-06864*
X-06717Y02622*
X-06604Y02735*
X-06543Y02882*
Y03041*
X-06604Y03188*
X-06717Y03301*
X-06864Y03361*
G37*
G36*
Y-01037D02*
X-07023D01*
X-0717Y-01098*
X-07283Y-01211*
X-07343Y-01358*
Y-01517*
X-07283Y-01664*
X-0717Y-01777*
X-07023Y-01837*
X-06864*
X-06717Y-01777*
X-06604Y-01664*
X-06543Y-01517*
Y-01358*
X-06604Y-01211*
X-06717Y-01098*
X-06864Y-01037*
G37*
G36*
X00197Y02003D02*
X-00197D01*
X-00584Y01926*
X-00949Y01775*
X-01277Y01556*
X-01556Y01277*
X-01775Y00949*
X-01926Y00584*
X-02003Y00197*
Y-00197*
X-01926Y-00584*
X-01775Y-00949*
X-01556Y-01277*
X-01277Y-01556*
X-00949Y-01775*
X-00584Y-01926*
X-00197Y-02003*
X00197*
X00584Y-01926*
X00949Y-01775*
X01277Y-01556*
X01556Y-01277*
X01775Y-00949*
X01926Y-00584*
X02003Y-00197*
Y00197*
X01926Y00584*
X01775Y00949*
X01556Y01277*
X01277Y01556*
X00949Y01775*
X00584Y01926*
X00197Y02003*
G37*
G36*
X-05189Y-03983D02*
X-06597D01*
Y-05991*
X-05189*
Y-03983*
G37*
G36*
X-07989D02*
X-09398D01*
Y-05991*
X-07989*
Y-03983*
G37*
G36*
X-11689D02*
X-13097D01*
Y-05991*
X-11689*
Y-03983*
G37*
G36*
X12865Y-06365D02*
X12534D01*
X12215Y-06451*
X11929Y-06616*
X11696Y-0685*
X11531Y-07135*
X11445Y-07454*
Y-07785*
X11531Y-08103*
X11696Y-08389*
X11929Y-08623*
X12215Y-08788*
X12534Y-08873*
X12865*
X13183Y-08788*
X13469Y-08623*
X13703Y-08389*
X13868Y-08103*
X13953Y-07785*
Y-07454*
X13868Y-07135*
X13703Y-0685*
X13469Y-06616*
X13183Y-06451*
X12865Y-06365*
G37*
G36*
X07785D02*
X07454D01*
X07135Y-06451*
X06849Y-06616*
X06616Y-0685*
X06451Y-07135*
X06365Y-07454*
Y-07785*
X06451Y-08103*
X06616Y-08389*
X06849Y-08623*
X07135Y-08788*
X07454Y-08873*
X07785*
X08103Y-08788*
X08389Y-08623*
X08623Y-08389*
X08788Y-08103*
X08873Y-07785*
Y-07454*
X08788Y-07135*
X08623Y-0685*
X08389Y-06616*
X08103Y-06451*
X07785Y-06365*
G37*
%LNflightstick_buttonpanelv3r_copper_signal_top-3*%
%LPD*%
G36*
X00086Y19995D02*
X0024Y19841D01*
X00429Y19732*
X0064Y19675*
X00859*
X00993Y19712*
X03221Y17484*
X03347Y17399*
X03496Y1737*
X0386*
X06205Y15024*
Y13565*
X07064*
X07231Y13399*
Y06274*
X07135Y06248*
X06849Y06083*
X06616Y05849*
X06451Y05563*
X06365Y05245*
Y04914*
X06414Y04732*
X06333Y04637*
X03864*
X03805Y04725*
Y04926*
X03729Y05111*
X03587Y05253*
X03402Y05329*
X03347*
X-0191Y10587*
Y16691*
X-01793Y16739*
X00235Y14711*
X00361Y14627*
X00509Y14597*
X01199*
X01238Y14558*
X01423Y14481*
X01624*
X01809Y14558*
X01951Y147*
X02027Y14885*
Y15086*
X01951Y15271*
X01809Y15413*
X01624Y15489*
X01423*
X01238Y15413*
X01199Y15374*
X0067*
X-01402Y17447*
Y18005*
X-01432Y18154*
X-01516Y1828*
X-02794Y19558*
X-02746Y19675*
X-0142*
Y19823*
X-01293Y19876*
X-01259Y19841*
X-01069Y19732*
X-00859Y19675*
X-0064*
X-00429Y19732*
X-0024Y19841*
X-00086Y19995*
X-00063Y20036*
X00063*
X00086Y19995*
G37*
G54D10*
X06909Y26069D03*
X09709D03*
X13409D03*
Y14569D03*
X09709D03*
X06909D03*
X-05893Y06511D03*
X-08693D03*
X-12393D03*
Y-04987D03*
X-08693D03*
X-05893D03*
G54D11*
X06909Y14569D02*
Y14869D01*
X04021Y17758D02*
X06909Y14869D01*
X03496Y17758D02*
X04021D01*
X00749Y20504D02*
X03496Y17758D01*
X06909Y14269D02*
X07619Y13559D01*
Y0508D02*
Y13559D01*
X06909Y14269D02*
Y14569D01*
X07328Y0508D02*
X07619D01*
X06497Y04248D02*
X07328Y0508D01*
X00116Y04248D02*
X06497D01*
X-02146Y06511D02*
X00116Y04248D01*
X-05893Y06511D02*
X-02146D01*
X-0762Y1524D02*
X-05893Y13513D01*
Y06511D02*
Y13513D01*
X-08857Y23156D02*
X-08349Y23664D01*
X-0179Y17286D02*
Y18005D01*
X-02298Y10426D02*
X03302Y04826D01*
X-02298Y10426D02*
Y17794D01*
X-0766Y23156D02*
X-02298Y17794D01*
X-08138Y23156D02*
X-0766D01*
X-08715Y22579D02*
X-08138Y23156D01*
X-10185Y22579D02*
X-08715D01*
X-08349Y23664D02*
X-0745D01*
X-0179Y17286D02*
X00509Y14986D01*
X-0745Y23664D02*
X-0179Y18005D01*
X-11894Y23156D02*
X-08857D01*
X00509Y14986D02*
X01524D01*
X-07899Y22579D02*
X-02806Y17486D01*
X-12471Y22579D02*
X-11894Y23156D01*
X-02806Y09918D02*
Y17486D01*
Y09918D02*
X02286Y04826D01*
X-00749Y25584D02*
X00749Y24084D01*
Y20504D02*
Y24084D01*
G54D12*
X0Y0D03*
X1016Y1016D03*
X-1016D03*
G54D13*
X-0762Y1524D03*
X-127D03*
X-0762Y2794D03*
X-127D03*
X07619Y0508D03*
X12699D03*
X07619Y-0762D03*
X12699D03*
G54D14*
X02249Y20504D03*
X00749D03*
X-00749D03*
G54D15*
X-02249Y20504D03*
G54D16*
X00749Y25584D03*
G54D17*
X-00749Y25584D03*
G54D18*
X-05613Y04037D03*
X-05919Y-05013D03*
X-08719D03*
X-12419D03*
X-08719Y06485D03*
X-12419D03*
X-07899Y22579D03*
X03302Y04826D03*
X02286D03*
X01524Y14986D03*
X-10185Y22579D03*
X-12471D03*
X09906Y26162D03*
X06883Y26043D03*
X13383D03*
X13409Y14569D03*
X09683Y14543D03*
X08128Y14478D03*
X13435Y18549D03*
X09906Y22317D03*
M02*