%FSTAX23Y23*%
%MOMM*%
%SFA1B1*%

%IPPOS*%
%ADD26C,0.253999*%
%ADD27C,0.250000*%
%ADD28C,0.200000*%
%LNflightstick_buttonpanelv3r_legend_bot-1*%
%LPD*%
G54D26*
X-11938Y24638D02*
Y25304D01*
X-12271Y25637*
X-12604Y25304*
Y24638*
Y25137*
X-11938*
X-12937Y25471D02*
X-13104Y25637D01*
X-13437*
X-13604Y25471*
Y24804*
X-13437Y24638*
X-13104*
X-12937Y24804*
Y25471*
X-09652Y24638D02*
Y25304D01*
X-09985Y25637*
X-10318Y25304*
Y24638*
Y25137*
X-09652*
X-10651Y24638D02*
X-10984D01*
X-10818*
Y25637*
X-10651Y25471*
X-07112Y24638D02*
Y25304D01*
X-07445Y25637*
X-07778Y25304*
Y24638*
Y25137*
X-07112*
X-08778Y24638D02*
X-08111D01*
X-08778Y25304*
Y25471*
X-08611Y25637*
X-08278*
X-08111Y25471*
X00837Y08839D02*
X-00431D01*
X-00685Y09093*
Y09601*
X-00431Y09855*
X00837*
X-00685Y10363D02*
Y1087D01*
Y10616*
X00837*
X00584Y10363*
G54D27*
X03901Y0478D02*
D01*
X039Y04788*
X03899Y04797*
X03898Y04806*
X03896Y04814*
X03893Y04822*
X0389Y04831*
X03886Y04838*
X03882Y04846*
X03877Y04853*
X03871Y0486*
X03866Y04867*
X03859Y04873*
X03853Y04878*
X03846Y04883*
X03838Y04888*
X0383Y04892*
X03823Y04896*
X03814Y04899*
X03806Y04901*
X03797Y04903*
X03789Y04904*
X0378Y04905*
X03771*
X03763Y04904*
X03754Y04903*
X03745Y04901*
X03737Y04899*
X03729Y04896*
X03721Y04892*
X03713Y04888*
X03706Y04883*
X03699Y04878*
X03692Y04873*
X03686Y04867*
X0368Y0486*
X03675Y04853*
X0367Y04846*
X03665Y04838*
X03661Y04831*
X03658Y04822*
X03656Y04814*
X03653Y04806*
X03652Y04797*
X03651Y04788*
X03651Y0478*
X03651Y04771*
X03652Y04762*
X03653Y04754*
X03656Y04745*
X03658Y04737*
X03661Y04729*
X03665Y04721*
X0367Y04713*
X03675Y04706*
X0368Y04699*
X03686Y04693*
X03692Y04687*
X03699Y04681*
X03706Y04676*
X03713Y04671*
X03721Y04667*
X03729Y04664*
X03737Y04661*
X03745Y04658*
X03754Y04657*
X03763Y04655*
X03771Y04655*
X0378*
X03789Y04655*
X03797Y04657*
X03806Y04658*
X03814Y04661*
X03823Y04664*
X0383Y04667*
X03838Y04671*
X03846Y04676*
X03853Y04681*
X03859Y04687*
X03866Y04693*
X03871Y04699*
X03877Y04706*
X03882Y04713*
X03886Y04721*
X0389Y04729*
X03893Y04737*
X03896Y04745*
X03898Y04754*
X03899Y04762*
X039Y04771*
X03901Y0478*
X-04049Y20529D02*
D01*
X-0405Y20538*
X-04051Y20547*
X-04052Y20555*
X-04054Y20564*
X-04057Y20572*
X-0406Y2058*
X-04064Y20588*
X-04068Y20596*
X-04073Y20603*
X-04079Y2061*
X-04085Y20616*
X-04091Y20622*
X-04098Y20628*
X-04105Y20633*
X-04112Y20638*
X-0412Y20642*
X-04128Y20645*
X-04136Y20648*
X-04144Y20651*
X-04153Y20653*
X-04161Y20654*
X-0417Y20654*
X-04179*
X-04188Y20654*
X-04196Y20653*
X-04205Y20651*
X-04213Y20648*
X-04221Y20645*
X-04229Y20642*
X-04237Y20638*
X-04244Y20633*
X-04251Y20628*
X-04258Y20622*
X-04264Y20616*
X-0427Y2061*
X-04276Y20603*
X-0428Y20596*
X-04285Y20588*
X-04289Y2058*
X-04292Y20572*
X-04295Y20564*
X-04297Y20555*
X-04298Y20547*
X-04299Y20538*
X-04299Y20529*
X-04299Y20521*
X-04298Y20512*
X-04297Y20503*
X-04295Y20495*
X-04292Y20487*
X-04289Y20479*
X-04285Y20471*
X-0428Y20463*
X-04276Y20456*
X-0427Y20449*
X-04264Y20443*
X-04258Y20437*
X-04251Y20431*
X-04244Y20426*
X-04237Y20421*
X-04229Y20417*
X-04221Y20414*
X-04213Y20411*
X-04205Y20408*
X-04196Y20406*
X-04188Y20405*
X-04179Y20405*
X-0417*
X-04161Y20405*
X-04153Y20406*
X-04144Y20408*
X-04136Y20411*
X-04128Y20414*
X-0412Y20417*
X-04112Y20421*
X-04105Y20426*
X-04098Y20431*
X-04091Y20437*
X-04085Y20443*
X-04079Y20449*
X-04073Y20456*
X-04068Y20463*
X-04064Y20471*
X-0406Y20479*
X-04057Y20487*
X-04054Y20495*
X-04052Y20503*
X-04051Y20512*
X-0405Y20521*
X-04049Y20529*
X-02599Y25584D02*
D01*
X-026Y25593*
X-02601Y25602*
X-02602Y2561*
X-02604Y25619*
X-02607Y25627*
X-0261Y25635*
X-02614Y25643*
X-02618Y25651*
X-02623Y25658*
X-02629Y25665*
X-02635Y25671*
X-02641Y25677*
X-02648Y25683*
X-02655Y25688*
X-02662Y25693*
X-0267Y25697*
X-02678Y257*
X-02686Y25703*
X-02694Y25706*
X-02703Y25708*
X-02711Y25709*
X-0272Y25709*
X-02729*
X-02738Y25709*
X-02746Y25708*
X-02755Y25706*
X-02763Y25703*
X-02771Y257*
X-02779Y25697*
X-02787Y25693*
X-02794Y25688*
X-02801Y25683*
X-02808Y25677*
X-02814Y25671*
X-0282Y25665*
X-02826Y25658*
X-0283Y25651*
X-02835Y25643*
X-02839Y25635*
X-02842Y25627*
X-02845Y25619*
X-02847Y2561*
X-02848Y25602*
X-02849Y25593*
X-02849Y25584*
X-02849Y25576*
X-02848Y25567*
X-02847Y25559*
X-02845Y2555*
X-02842Y25542*
X-02839Y25534*
X-02835Y25526*
X-0283Y25518*
X-02826Y25511*
X-0282Y25504*
X-02814Y25498*
X-02808Y25492*
X-02801Y25486*
X-02794Y25481*
X-02787Y25476*
X-02779Y25472*
X-02771Y25469*
X-02763Y25466*
X-02755Y25463*
X-02746Y25461*
X-02738Y2546*
X-02729Y2546*
X-0272*
X-02711Y2546*
X-02703Y25461*
X-02694Y25463*
X-02686Y25466*
X-02678Y25469*
X-0267Y25472*
X-02662Y25476*
X-02655Y25481*
X-02648Y25486*
X-02641Y25492*
X-02635Y25498*
X-02629Y25504*
X-02623Y25511*
X-02618Y25518*
X-02614Y25526*
X-0261Y25534*
X-02607Y25542*
X-02604Y2555*
X-02602Y25559*
X-02601Y25567*
X-026Y25576*
X-02599Y25584*
G54D28*
X04276Y0753D02*
Y1218D01*
X-04123Y0753D02*
Y1218D01*
X08585Y13827D02*
X08685D01*
X08585Y15127D02*
X08685D01*
X12811Y17475D02*
Y17575D01*
X14111Y17475D02*
Y17575D01*
X12811Y27127D02*
Y27227D01*
X14111Y27127D02*
Y27227D01*
X-10779Y18491D02*
Y18591D01*
X-12079Y18491D02*
Y18591D01*
X13953Y01889D02*
X14053D01*
X13953Y03189D02*
X14053D01*
X09255Y23317D02*
Y23417D01*
X10555Y23317D02*
Y23417D01*
X05699Y23063D02*
Y23163D01*
X06999Y23063D02*
Y23163D01*
X-13095Y-06179D02*
Y-06079D01*
X-11795Y-06179D02*
Y-06079D01*
X-13095Y03471D02*
Y03571D01*
X-11795Y03471D02*
Y03571D01*
X-09285Y-06179D02*
Y-06079D01*
X-07985Y-06179D02*
Y-06079D01*
X-09539Y03251D02*
Y03351D01*
X-08239Y03251D02*
Y03351D01*
X-06491Y-06179D02*
Y-06079D01*
X-05191Y-06179D02*
Y-06079D01*
X03749Y19204D02*
Y22704D01*
X-03749Y19204D02*
X03749D01*
X-03749D02*
Y22704D01*
X03749*
X02249Y24284D02*
Y27784D01*
X-02249Y24284D02*
X02249D01*
X-02249D02*
Y27784D01*
X02249*
M02*