%FSTAX23Y23*%
%MOMM*%
%SFA1B1*%

%IPPOS*%
%ADD14C,1.149998*%
%ADD15R,1.149998X1.149998*%
%ADD16C,1.199998*%
%ADD17R,1.199998X1.199998*%
%ADD19R,0.599999X1.599997*%
%ADD20R,0.399999X1.599997*%
%ADD30C,3.575993*%
%ADD31C,2.075996*%
%ADD32R,1.275997X1.575997*%
%ADD33R,1.125998X1.375997*%
%ADD34R,1.575997X1.275997*%
%ADD35R,1.375997X1.125998*%
%ADD36R,1.345997X0.710999*%
%LNflightstick_buttonpanelv3r_soldermask_bot-1*%
%LPD*%
G54D14*
X02249Y20504D03*
X00749D03*
X-00749D03*
G54D15*
X-02249Y20504D03*
G54D16*
X00749Y25584D03*
G54D17*
X-00749Y25584D03*
G54D19*
X03751Y06355D03*
X-03598D03*
Y13355D03*
X03751D03*
G54D20*
X03001Y06355D03*
X02351D03*
X01701D03*
X01051D03*
X00401D03*
X-00248D03*
X-00898D03*
X-01548D03*
X-02198D03*
X-02848D03*
Y13355D03*
X-02198D03*
X-01548D03*
X-00898D03*
X-00248D03*
X00401D03*
X01051D03*
X01701D03*
X02351D03*
X03001D03*
G54D30*
X0Y0D03*
X1016Y1016D03*
X-1016D03*
G54D31*
X-0762Y1524D03*
X-127D03*
X-0762Y2794D03*
X-127D03*
X07619Y0508D03*
X12699D03*
X07619Y-0762D03*
X12699D03*
G54D32*
X07585Y14478D03*
X09685D03*
X12954Y0254D03*
X15053D03*
G54D33*
X09688Y16764D03*
X11138D03*
X13424Y14478D03*
X11974D03*
X09471Y0254D03*
X10922D03*
X-10995Y0635D03*
X-12446D03*
X-07439D03*
X-0889D03*
G54D34*
X13462Y18575D03*
Y16475D03*
Y28227D03*
Y26127D03*
X-1143Y17491D03*
Y19591D03*
X09906Y24417D03*
Y22317D03*
X0635Y24163D03*
Y22063D03*
X-12446Y-0508D03*
Y-07179D03*
Y04572D03*
Y02471D03*
X-08636Y-0508D03*
Y-07179D03*
X-0889Y04351D03*
Y02251D03*
X-05842Y-0508D03*
Y-07179D03*
G54D35*
X13462Y24346D03*
Y22896D03*
X09906Y26162D03*
Y27611D03*
X06858Y26198D03*
Y27648D03*
X-1397Y19012D03*
Y17562D03*
X-12446Y-01597D03*
Y-03048D03*
X-09144Y-0156D03*
Y-0301D03*
X-04572Y-01306D03*
Y-02756D03*
G54D36*
X-07874Y2159D03*
Y22606D03*
Y23622D03*
X-1016Y2159D03*
Y22606D03*
Y23622D03*
X-12446Y2159D03*
Y22606D03*
Y23622D03*
M02*